<?xml version="1.0" encoding="UTF-8" standalone="no"?>
<svg xmlns="http://www.w3.org/2000/svg" viewBox="0 0 900 360" height="360" width="900">
  <path d="M225.6744 358.6464c-.3578-.8082-9.1798-20.8634-19.6042-44.567-10.4245-23.7036-19.0326-43.1765-19.1292-43.273-.097-.0967-.25-.101-.3413-.01-.0912.091-3.5782 19.471-7.749 43.0665-4.1707 23.595-7.712 43.029-7.8695 43.187-.172.172-3.5672.254-8.5065.206l-8.22-.08.0978-.749c.186-1.423 26.4926-135.588 26.6112-135.717.0653-.072.2608.012.4343.185.1736.173 10.2753 23.154 22.4482 51.068 12.173 27.914 22.31 50.786 22.527 50.827.2598.048 7.956-17.298 22.534-50.789 12.1764-27.975 22.2533-50.989 22.393-51.143.1395-.154.3376-.196.44-.094.2906.29 26.7962 135.763 26.645 136.185-.103.287-2.0523.374-8.3663.374-4.528 0-8.295-.102-8.371-.225-.077-.124-3.54-19.507-7.697-43.073-4.157-23.567-7.664-42.965-7.794-43.108-.13-.142-.444.143-.698.634-.254.491-9.11 20.563-19.679 44.606-10.57 24.042-19.271 43.768-19.337 43.834-.066.066-.412-.54-.77-1.349zm473.176 1.2c-.412-.0684-1.7603-.2698-2.9963-.4473-13.728-1.971-27.167-8.598-37.479-18.479-5.983-5.733-10.18-11.493-13.915-19.1-7.096-14.45-8.77-30.911-4.771-46.917 3.574-14.305 12.149-27.648 23.668-36.828 17.686-14.096 41.778-18.967 63.212-12.782 5.73 1.654 13.559 5.226 14.239 6.497.338.63.372 17.215.037 18.062-.192.487-.372.42-1.702-.633-6.054-4.794-14.103-8.56-21.862-10.229-20.933-4.502-41.788 3.952-53.817 21.816-3.901 5.793-6.736 12.568-8.285 19.798-.748 3.493-.806 4.28-.806 10.955s.058 7.462.806 10.955c2.436 11.368 7.584 20.677 15.765 28.504 12.846 12.29 30.805 16.869 48.074 12.258 7.096-1.895 13.607-5.161 19.29-9.677 1.747-1.388 2.329-1.71 2.528-1.396.434.685.334 18.036-.107 18.606-.973 1.258-8.397 4.53-14.413 6.353-1.953.592-5.391 1.433-7.641 1.868-3.644.706-4.907.801-11.581.869-4.12.042-7.828.02-8.24-.048zm-634.606-139.306c-.2402 0-59.471 128.5402-62.86 136.4163-.1298.3026 1.657.3636 8.7708.3004l8.9346-.08 7.2862-16.008c4.0078-8.804 7.436-16.189 7.6178-16.408.2715-.327 5.6964-.384 30.4478-.322l30.118.077 7.421 16.332 7.4207 16.33 8.718.08c8.1662.075 8.718.045 8.7044-.45-.024-.877-62.2-136.266-62.5792-136.266zm-.1072 36.1246c.1013-.0196.236.0368.3414.1522.332.3624 22.8066 51.575 22.8066 51.9688 0 .196-7.952.2985-23.107.2985-21.8658 0-23.099-.0286-22.9527-.5248.229-.778 22.6216-51.6453 22.824-51.848.024-.0238.0542-.0402.088-.0468zm275.519 34.8158l.076-65.846 35.1892-.0762c27.9535-.0605 35.2384.001 35.4278.2997.3104.4887.312 13.744 0 14.2325-.1854.292-6.0834.3896-27.1877.4495l-26.952.0765v36.556l26.2184.15 26.218.1497v14.982l-26.219.1498-26.219.15v49.4405l26.951.0765c21.104.06 27.002.1575 27.187.4494.275.434.334 13.4275.064 14.132-.165.4285-3.572.474-35.508.474h-35.326l.076-65.846zm125.96-65.966c-6.737-.0225-8.4524.066-8.611.316-.286.4522-.3675 130.278-.0818 131.0225.1595.4158 1.1645.474 8.207.474 7.0423 0 8.0493-.058 8.209-.474.1-.2607.1813-12.8054.1813-27.8767V301.574l3.3554.084 3.356.0857 19.34 27.7908 19.34 27.7928h9.817c6.52 0 9.815-.1036 9.815-.3082 0-.169-9.121-12.878-20.27-28.241s-20.286-28.116-20.302-28.343c-.02-.281.778-.58 2.519-.942 7.211-1.499 13.328-4.885 18.382-10.175 10.887-11.394 13.258-29.734 5.699-44.072-5.146-9.761-13.712-15.86-25.594-18.224-6.057-1.205-7.698-1.301-24.818-1.449-3.49-.03-6.295-.049-8.54-.056zm8.0546 14.8027l5.9167.0487c6.276.0523 9.693.376 14.309 1.3538 8.3534 1.7696 14.4675 5.848 17.3054 11.5447 1.842 3.6983 2.269 6.0744 2.104 11.7203-.122 4.1558-.236 4.9864-.989 7.214-2.98 8.809-10.466 13.6205-23.56 15.144v.002c-2.251.262-6.459.464-9.622.4642h-5.621l.078-23.745.076-23.7468zm103.964 116.6346c-.078-.206-.1078-29.836-.066-65.845l.077-65.471h16.1805l.076 65.846.0758 65.846h-8.1c-6.204 0-8.133-.087-8.242-.374zm258.2338-136.536c-.1068-.023-.2505.031-.361.147-.4332.453-62.347 135.828-62.347 136.323 0 .394 1.118.442 8.7163.373l8.716-.08 7.428-16.33 7.426-16.331 30.112-.076c24.588-.062 30.173-.004 30.44.318.18.217 3.612 7.601 7.625 16.408l7.298 16.013 8.927.08c7.108.063 8.894.001 8.765-.3-1.048-2.44-62.521-136.356-62.656-136.49-.025-.025-.056-.043-.092-.05zm-.012 36.246c.033.006.061.019.084.041.2007.201 22.6217 51.117 22.8358 51.858.1433.497-1.09.525-22.955.525-14.5852 0-23.109-.107-23.109-.288 0-.393 22.4765-51.627 22.8028-51.978.1073-.115.2425-.172.3414-.156zM751.669 31.896c-2.7788 0-5.6666.254-8.0978.7568-14.6198 3.0235-31.1484 16.2004-45.3127 36.1207C695.694 72.38 689.28 82.3632 685.7462 88.25l-2.0678 3.4452-8.605.1502c-7.2006.1253-8.655.2228-8.9053.599-.59.886-1.176 2.073-1.176 2.3818 0 .2117 2.596.316 7.94.316 6.834 0 7.942.0625 7.942.4467 0 .245-.583 1.357-1.297 2.471-2.386 3.726-7.269 12.128-12.493 21.501-19.537 35.055-28.655 49.308-39.716 62.076-9.405 10.856-20.342 19.126-29.195 22.077-6.502 2.166-14.152 2.523-20.204.94-6.439-1.685-10.851-6.386-12.315-13.121-.783-3.604-.519-9.791.547-12.786.971-2.728 3.061-5.86 5.121-7.675 1.991-1.754 6.108-3.81 8.574-4.282 3.265-.625 3.739-.788 3.841-1.321.188-.975-1.299-1.228-7.286-1.241-5.313-.012-5.892.042-8.689.813-9.32 2.572-15.517 8.331-17.057 15.856-.578 2.821-.583 5.035-.025 8.168 1.093 6.134 5.57 11.274 12.782 14.673 4.266 2.01 6.821 2.668 15.088 3.882.495.072 3.732.086 7.193.029 12.35-.204 20.722-2.219 31.776-7.642 4.848-2.378 11.927-6.851 15.866-10.025 3.992-3.217 9.158-8.075 12.577-11.826 11.685-12.818 24.537-32.365 39.117-59.499 5.772-10.741 12.573-22.473 13.422-23.148.653-.52 37.022-.551 36.848-.032-.063.189-1.456 1.187-3.096 2.218-15.78 9.916-25.217 25.333-24.295 39.688.37 5.757 2.013 9.649 5.568 13.183 3.51 3.49 7.286 5.15 12.883 5.663 14.81 1.358 31.789-6.577 42.605-19.912 4.227-5.21 8.372-12.845 10.203-18.786.546-1.772 1.107-3.221 1.247-3.221.14 0 1.139.81 2.222 1.802 3.444 3.156 7.189 4.412 11.882 3.983 1.841-.168 2.052-.133 1.885.3027-.104.2695-2.867 4.9765-6.141 10.46-8.357 13.9965-12.948 21.929-12.948 22.3715 0 .3 1.6.339 7.715.191 4.244-.103 8.152-.252 8.685-.3338.755-.116 1.127-.428 1.684-1.411 10.241-18.06 17.627-28.3244 28.052-38.975 5.029-5.137 8.418-8.158 12.92-11.525 3.667-2.742 4.122-2.807 2.969-.4215-2.059 4.261-1.961 10.52.226 14.539 2.34 4.299 6.83 6.515 13.258 6.545 6.73.031 12.014-1.738 18.039-6.034 3.175-2.264 8.105-7.243 7.844-7.922-.099-.257-.306-.466-.462-.466-.156 0-1.528 1.187-3.051 2.637-5.292 5.041-9.175 7.262-13.095 7.489-3.015.174-4.95-.441-6.388-2.033-1.299-1.438-1.684-2.774-1.684-5.8467.001-4.762 1.6145-9.173 5.7257-15.661 2.6205-4.134 2.8234-4.503 2.608-4.719-.33-.329-10.79.419-12.682.908-2.719.702-4.703 1.828-7.1082 4.03-1.198 1.097-3.455 2.863-5.015 3.925-6.026 4.101-14.476 11.602-19.888 17.656-4.362 4.879-6.306 6.89-5.94 6.141.163-.3327 5.025-7.272 10.805-15.421 5.78-8.147 10.406-14.917 10.28-15.043-.126-.126-4.473-.0825-9.66.0975-8.045.279-9.501.399-9.917.818-.268.27-3.249 5.209-6.625 10.977-3.375 5.768-6.527 11.131-7.003 11.916-1.208 1.9904-2.536 2.468-6.859 2.468-3.9465 0-5.262-.4816-7.7543-2.8385-2.051-1.94-3.317-4.494-4.116-8.302-1.132-5.392-3.218-9.165-6.9237-12.522-3.8366-3.476-7.8717-4.766-14.9156-4.772-4.928-.004-7.62.381-12.438 1.777l-2.551.74h-21.57c-13.966 0-21.569-.105-21.569-.297 0-.338 7.5664-13.733 11.172-19.779 5.479-9.187 12.1024-18.611 17.4964-24.89 8.3616-9.732 16.1006-14.2 21.695-12.524 5.786 1.734 7.0595 11.467 2.819 21.543-.41.9735-.7453 1.966-.7453 2.206 0 .648 2.8726.916 5.554.517 5.6636-.843 9.6887-3.36 11.48-7.183.714-1.523.794-2.038.794-5.138 0-3.258-.053-3.558-.9614-5.476-1.327-2.803-3.493-4.895-6.687-6.461-1.3965-.685-3.4006-1.461-4.4534-1.725-1.994-.498-4.663-.745-7.442-.743zm6.6716 59.4695c.6125-.002 1.2134.0494 1.8006.158 4.0498.7486 5.829 3.5555 5.829 9.194 0 11.395-9.0985 31.9825-19.27 43.604-3.7548 4.2902-8.0948 7.661-11.5504 8.9735-2.2017.8363-6.2988 1.0668-7.9827.4487-1.663-.6106-3.345-2.5833-3.936-4.6156-.379-1.305-.449-2.495-.324-5.575.238-5.818 2.129-12.404 6.112-21.289 8.312-18.54 20.135-30.861 29.322-30.898z" fill="#3b9ed7"/>
  <path d="M73.5015 156.083c-22.377-2.045-41.5146-13.5903-54.097-32.6357-6.928-10.4863-11.4523-23.1655-12.7468-35.7217-.469-4.5487-.1945-17.501.4555-21.4993C10.0204 48.345 17.2462 33.308 28.554 21.6087c4.3228-4.4728 7.8404-7.426 12.4365-10.4415C49.3362 5.692 58.7502 2.1274 69.007.5592c4.35-.665 15.2706-.7455 19.4765-.1436 6.8487.9803 14.6305 3.375 20.4622 6.297l3.5137 1.6886c0 11.7815.0003 19.1443.0003 34.4166l-2.6243-2.5576C97.6104 28.3462 81.353 24.479 66.101 29.857c-16.5335 5.8296-28.1247 23.2255-29.7244 44.61-.8008 10.7042 1.6492 22.136 6.705 31.2866 6.667 12.0663 17.26 20.0412 29.5327 22.2338 3.793.6776 10.1016.6968 13.6345.0144 8.5694-1.6556 16.627-5.8134 23.0547-11.8964 1.547-1.4643 3.039-2.8058 3.1397-2.8058 0 12.1184.0448 26.987.0448 34.167l-2.2574 1.0004c-6.277 3.0368-15.9086 6.083-22.1968 7.0607-2.9394.457-11.874.7984-14.5326.5555zM228.1845.0046c-4.0842-.031-8.165.097-10.5558.398-10.034 1.2626-19.982 4.584-27.9566 9.3344-20.456 12.1854-33.105 33.9286-35.303 60.685-.416 5.0734-.171 15.0667.488 19.888 3.243 23.737 14.349 42.5656 32.04 54.3138 9.411 6.2494 20.89 10.1556 33.279 11.3243 4.525.427 14.596.138 19.198-.55 15.295-2.286 28.053-8.422 38.511-18.522 11.889-11.482 19.28-26.511 22.216-45.18.579-3.68.66-5.371.66-13.782 0-10.762-.35-14.067-2.356-22.174-7.523-30.39-29.775-50.973-59.65-55.176-2.398-.337-6.485-.527-10.569-.558zm.5968 28.501c6.7925.1845 13.512 1.9548 19.2543 5.2866 9.294 5.3926 16.116 14.0405 20.097 25.4773 4.668 13.4112 3.472 31.1074-3.0316 44.8367-3.9188 8.273-10.7968 15.5367-18.2574 19.2816-2.2146 1.1116-6.5244 2.578-9.588 3.2636-2.0876.467-4.0518.6252-8.6908.7004-6.323.1025-6.4193.0965-10.187-.6418-7.8514-1.5386-14.4085-5.0144-19.935-10.5694-7.2193-7.256-12.0076-17.8974-13.8292-30.7365-.6248-4.404-.4662-13.99.3005-18.197 2.795-15.333 11.931-28.363 24.174-34.474 6.035-3.012 12.901-4.412 19.694-4.227zM344.8255 3.9002v148.121c.1245.3274 4.3993.3752 24.1975.273 22.5697-.1166 24.285-.1616 27.941-.7472 8.9547-1.434 15.579-3.524 22.6857-7.1592 17.6146-9.0102 30.524-25.5628 35.592-45.6366 1.9534-7.7375 2.2414-10.345 2.2414-20.5398 0-7.463-.1-9.9364-.526-12.5845-4.127-25.63-17.46-44.618-38.419-54.722-4.738-2.284-7.747-3.369-13.183-4.754-8.693-2.215-9.266-2.251-36.406-2.251h-24.121zm31.8173 25.044c3.1876.022 9.0024.3534 12.0773.7453 22.065 2.8114 34.445 14.633 38.261 36.5362.77 4.4072.769 18.7255 0 23.3723-1.841 11.128-5.313 18.5208-11.701 24.9077-6.8 6.7992-15.292 10.52-27.192 11.9173l-.11-.0442c-3.966.4656-13.35.864-13.971.593 0 0-.264-54.779-.264-97.739l.792-.199c.281-.0698 1.051-.0968 2.113-.0898zM501.7234 151.967c-.248-.2987-.317-19.9098-.2615-74.2358l.075-73.8298h76.708v24.87l-23.822.1544c-13.102.085-23.857.186-23.899.2247-.043.039-.043 7.318 0 16.176l.078 16.1057 22.594.0768c16.197.055 22.709.1723 23 .414.332.2757.392 2.558.328 12.508l-.078 12.171-22.923.1545c-12.608.085-22.956.186-22.998.2247-.041.0387-.075 9.037-.075 19.9963s.034 19.9578.075 19.9965c.041.0388 10.794.1398 23.896.2247l23.821.1543.078 12.1006c.056 8.6835-.018 12.2162-.262 12.51-.505.6084-75.834.6118-76.339.003z" fill="#cd263e"/>
</svg>
