<?xml version="1.0" encoding="utf-8"?>
<!-- Generator: Adobe Illustrator 16.0.4, SVG Export Plug-In . SVG Version: 6.00 Build 0)  -->
<!DOCTYPE svg PUBLIC "-//W3C//DTD SVG 1.1//EN" "http://www.w3.org/Graphics/SVG/1.1/DTD/svg11.dtd">
<svg version="1.1" id="Layer_1" xmlns="http://www.w3.org/2000/svg" xmlns:xlink="http://www.w3.org/1999/xlink" x="0px" y="0px"
	 width="216px" height="108px" viewBox="0 0 216 108" enable-background="new 0 0 216 108" xml:space="preserve">
<g>
	<g>
		<path fill="#083C99" d="M79.584,53.7666c-1.0532,0.3516-1.8525,0.4688-2.9253,0.4688c-3.9194,0-6.3184-2.75-6.3184-7.1377
			c0-4.3682,2.3989-7.1182,6.3184-7.1182c1.1113,0,1.9307,0.0977,2.9058,0.4102l0.897,0.292
			c0.1558,0.0586,0.2144,0.1562,0.1558,0.3125l-0.7021,2.2031c-0.0581,0.1562-0.1558,0.2148-0.3115,0.1562l-0.917-0.292
			c-0.5654-0.1758-1.1309-0.2539-2.0278-0.2539c-1.9502,0-3.1396,1.5791-3.1396,4.29c0,2.75,1.1895,4.3291,3.1396,4.3291
			c0.7217,0,1.3066-0.0586,2.0083-0.292l0.917-0.2734c0.1558-0.0586,0.2729,0,0.312,0.1562l0.7798,2.125
			c0.0586,0.1562,0.0195,0.2539-0.1558,0.3125L79.584,53.7666z"/>
		<path fill="#083C99" d="M94.4814,47.0977c0,4.3682-2.3594,7.1377-6.2012,7.1377c-3.8608,0-6.2207-2.7695-6.2207-7.1377
			c0-4.3877,2.3599-7.1182,6.2207-7.1182C92.1221,39.9795,94.4814,42.71,94.4814,47.0977z M85.2383,47.0977
			c0,2.6719,1.1504,4.3291,3.042,4.3291s3.0229-1.6572,3.0229-4.3291c0-2.7305-1.1313-4.29-3.0229-4.29
			S85.2383,44.3672,85.2383,47.0977z"/>
		<path fill="#083C99" d="M101.521,40.1943c3.8999,0,6.2402,2.6914,6.2402,6.9229c0,4.1338-2.4185,6.9033-6.2402,6.9033h-4.8364
			c-0.1558,0-0.2534-0.0977-0.2534-0.2539V40.4482c0-0.1562,0.0977-0.2539,0.2534-0.2539H101.521z M99.5903,51.2705h1.9307
			c1.8916,0,3.0615-1.501,3.0615-4.1533c0-2.6719-1.1699-4.1533-3.0615-4.1533h-1.9307V51.2705z"/>
		<path fill="#083C99" d="M117.6475,45.5381c0.1553,0,0.2529,0.0967,0.2529,0.2529v2.2432c0,0.1553-0.0977,0.2529-0.2529,0.2529
			h-4.7783v2.9834h6.377c0.1562,0,0.2539,0.0977,0.2539,0.2539v2.2422c0,0.1562-0.0977,0.2539-0.2539,0.2539h-9.2822
			c-0.1553,0-0.2529-0.0977-0.2529-0.2539V40.4482c0-0.1562,0.0977-0.2539,0.2529-0.2539h9.3799
			c0.1758,0,0.2539,0.1172,0.2148,0.293l-0.625,2.2617c-0.0381,0.1367-0.1357,0.2148-0.2725,0.2148h-5.792v2.5742H117.6475z"/>
	</g>
	<g>
		<path fill="#083C99" d="M125.5137,45.7725c0.2314-1.3486,1.0859-2.1455,2.3047-2.1455c0.2891,0,0.5068,0.0576,0.7676,0.1592
			l0.2178,0.0869c0.0869,0.0439,0.1016,0.1016,0.0576,0.1748l-0.3047,0.5508c-0.043,0.0723-0.1016,0.1006-0.1738,0.0576
			l-0.1445-0.0576c-0.1602-0.0586-0.3047-0.0879-0.4639-0.0879c-0.6807,0-1.1885,0.5225-1.3193,1.334l-0.2031,1.2324h1.6094
			c0.0869,0,0.1309,0.0576,0.1162,0.1445l-0.1016,0.5947c-0.0146,0.0723-0.0576,0.1162-0.1299,0.1162h-1.6387l-0.9707,5.9717
			c-0.0156,0.0723-0.0586,0.1162-0.1309,0.1162h-0.6816c-0.0869,0-0.1309-0.0576-0.1152-0.1445l0.9561-5.9434h-0.6523
			c-0.0869,0-0.1299-0.0586-0.1162-0.1455l0.1016-0.5938c0.0146-0.0732,0.0586-0.1162,0.1309-0.1162h0.6816L125.5137,45.7725z"/>
		<path fill="#083C99" d="M134.8516,49.7295c0,1.7979-1,4.4355-3.7549,4.4355c-1.7256,0-2.71-1.0576-2.71-2.8115
			c0-1.8125,1.0137-4.4219,3.7676-4.4219C133.8652,46.9316,134.8516,47.9902,134.8516,49.7295z M129.3281,51.3242
			c0,1.2471,0.6387,1.9717,1.7979,1.9717c2.1016,0,2.7979-2.1748,2.7979-3.5225c0-1.2471-0.6523-1.9717-1.7979-1.9717
			C130.0098,47.8018,129.3281,49.9766,129.3281,51.3242z"/>
		<path fill="#083C99" d="M140.5801,47.6855c-0.0137,0.0732-0.0576,0.1162-0.1299,0.1162
			c-1.5801,0.0576-2.6816,1.3623-3.0879,3.8271L137,53.9043c-0.0146,0.0723-0.0586,0.1162-0.1309,0.1162h-0.6807
			c-0.0869,0-0.1309-0.0576-0.1162-0.1445l1.0723-6.6826c0.0156-0.0732,0.0586-0.1162,0.1309-0.1162h0.4639
			c0.0869,0,0.1299,0.043,0.1162,0.1299l-0.0723,1.1025c0.0137,0.1152,0.1016,0.1445,0.1875,0.0283
			c0.668-0.8691,1.4941-1.3623,2.5957-1.4062c0.0859,0,0.1299,0.0586,0.1152,0.1455L140.5801,47.6855z"/>
	</g>
	<g>
		<path fill="#083C99" d="M82.0996,72.0996c0,0.1562-0.0977,0.2539-0.2539,0.2539h-2.6323c-0.1562,0-0.2534-0.0977-0.2534-0.2539
			v-5.4795h-5.0703v5.4795c0,0.1562-0.0977,0.2539-0.2534,0.2539h-2.6523c-0.1558,0-0.2534-0.0977-0.2534-0.2539V58.7812
			c0-0.1562,0.0977-0.2539,0.2534-0.2539h2.6523c0.1558,0,0.2534,0.0977,0.2534,0.2539v5.0898H78.96v-5.0898
			c0-0.1562,0.0972-0.2539,0.2534-0.2539h2.6323c0.1562,0,0.2539,0.0977,0.2539,0.2539V72.0996z"/>
		<path fill="#083C99" d="M88.2998,70.5205l-0.585,1.6377c-0.0586,0.1367-0.1562,0.1953-0.2925,0.1953h-2.75
			c-0.1948,0-0.2729-0.1172-0.2144-0.293l2.7495-7.4492c0.7217-1.9883,1.3652-3.8994,1.8525-5.8691
			c0.0391-0.1367,0.1367-0.2148,0.2925-0.2148H92.98c0.1558,0,0.2534,0.0781,0.2925,0.2148
			c0.4873,1.9697,1.1309,3.8809,1.8525,5.8691l2.7495,7.4492c0.0586,0.1758-0.0195,0.293-0.2144,0.293h-2.7495
			c-0.1367,0-0.2344-0.0586-0.2925-0.1953l-0.5854-1.6377H88.2998z M92.7656,66.9912c-0.5659-1.541-1.1899-3.374-1.4238-4.6416
			c-0.0586-0.2344-0.2925-0.2344-0.3511,0c-0.2534,1.2676-0.8579,3.0811-1.4233,4.6416l-0.2729,0.7793h3.7441L92.7656,66.9912z"/>
		<path fill="#083C99" d="M119.8262,70.5205l-0.585,1.6377c-0.0586,0.1367-0.1562,0.1953-0.292,0.1953h-2.75
			c-0.1953,0-0.2734-0.1172-0.2148-0.293l2.75-7.4492c0.7207-1.9883,1.3652-3.8994,1.8516-5.8691
			c0.0391-0.1367,0.1367-0.2148,0.293-0.2148h3.627c0.1562,0,0.2539,0.0781,0.293,0.2148c0.4873,1.9697,1.1309,3.8809,1.8525,5.8691
			l2.749,7.4492c0.0586,0.1758-0.0195,0.293-0.2139,0.293h-2.749c-0.1367,0-0.2344-0.0586-0.293-0.1953l-0.5859-1.6377H119.8262z
			 M124.292,66.9912c-0.5654-1.541-1.1904-3.374-1.4238-4.6416c-0.0586-0.2344-0.292-0.2344-0.3506,0
			c-0.2539,1.2676-0.8584,3.0811-1.4238,4.6416l-0.2734,0.7793h3.7441L124.292,66.9912z"/>
		<path fill="#083C99" d="M134.8994,72.0996c0,0.1562-0.0977,0.2539-0.2529,0.2539h-2.6523c-0.1562,0-0.2539-0.0977-0.2539-0.2539
			V58.7812c0-0.1562,0.0977-0.2539,0.2539-0.2539h2.6523c0.1553,0,0.2529,0.0977,0.2529,0.2539V72.0996z"/>
		<path fill="#083C99" d="M141.0801,72.0996c0,0.1562-0.0977,0.2539-0.2529,0.2539h-2.6523c-0.1553,0-0.2529-0.0977-0.2529-0.2539
			V58.7812c0-0.1562,0.0977-0.2539,0.2529-0.2539h2.6523c0.1553,0,0.2529,0.0977,0.2529,0.2539V72.0996z"/>
	</g>
	<g>
		<path fill="#083C99" d="M103.8096,62.791l1.2852,3.9746c0.1289,0.5527-0.25,1.1191-0.8008,1.248c0,0-0.9785,0.2441-1.2715-0.8047
			l-1.1797-4.1074c-0.125-0.5742,0.2422-0.9355,0.7148-1.1113C103.0381,61.8125,103.5479,61.8906,103.8096,62.791z"/>
		<path fill="#083C99" d="M106.5947,61.7363l1.7129,5.9141c0.125,0.5723-0.2461,1.1172-0.8008,1.248
			c0,0-0.9727,0.2227-1.2715-0.7871l-1.7148-5.9121c-0.1211-0.5723,0.248-1.1191,0.8027-1.248
			C105.3232,60.9512,106.3232,60.6895,106.5947,61.7363z"/>
		<path fill="#083C99" d="M110.9775,65.8496c0.1289,0.5527-0.2285,1.1211-0.7969,1.248c0,0-1.1719,0.2109-1.418-0.8496
			l-1.2129-4.1777c-0.123-0.5723,0.1172-1.0293,0.5332-1.1484c0.416-0.1172,0.9785,0,1.2598,0.6797L110.9775,65.8496z"/>
		<path fill="#083C99" d="M96.8643,58.4492c-0.207-0.6367,0.2383-1.1543,0.6602-1.2812c0.4219-0.1289,1.1719,0.1758,1.3711,0.8301
			l3.7607,9.9209c0.5615,1.0664,1.9678,1.1445,2.8359,0.1846c0.2256,0.8154,0.8193,1.7568,2.2979,1.4082
			c1.5107-0.3564,1.2559-1.8545,1.2559-1.8545c0.5117,0.2363,1.2227,0.1396,1.2227,0.1396
			c0.9551-0.2285,1.5645-1.1836,1.3535-2.1289l-0.1582-0.707l2.6035-4.8711c0.2227-0.4688,0.8184-1.0586,1.459-0.9141l0.0625,0.0117
			c0.6543,0.168,1.0547,0.8223,0.9102,1.459l-3.668,9.5801c-0.3594,1.2598-0.8066,2.1309-2.4512,2.127l-6.8086-0.0117
			c-1.5098,0.0117-2.4473-0.9785-2.7832-2.3145L96.8643,58.4492z"/>
	</g>
</g>
</svg>
