<svg xmlns="http://www.w3.org/2000/svg" viewBox="0 0 100 100" height="100" width="100">
  <path fill="#312e33" d="M0 0h100v100H0z"/>
  <path fill="#F9F5F4" d="M15.056641 30.53125c-4.714347 0-7.5996098 3.306507-7.5996098 8.560547 0 5.277495 2.8853838 8.585937 7.5996098 8.585937 1.290356 0 2.25275-.141551 3.519531-.564453l1.125-.375c.210845-.070483.25798-.187124.1875-.375l-.9375-2.55664c-.047029-.187876-.187605-.25798-.375-.1875l-1.103516.328125c-.844.280736-1.54796.351562-2.416015.351562-2.345567 0-3.775391-1.899351-3.775391-5.207031 0-3.260651 1.429704-5.160156 3.775391-5.160156 1.078785 0 1.759394.095189 2.439453.30664l1.103515.34961c.187275.070484.30512.000376.375-.1875l.84375-2.650391c.070484-.187997-.000105-.30452-.1875-.375l-1.078125-.351562c-1.172844-.375872-2.159429-.492188-3.496093-.492188zm13.978515 0c-4.643743 0-7.482422 3.283053-7.482422 8.560547 0 5.25404 2.838679 8.585937 7.482422 8.585937 4.62089 0 7.458985-3.331897 7.458985-8.585937 0-5.277494-2.837975-8.560547-7.458985-8.560547zm10.109375.257812c-.187274 0-.304687.116812-.304687.304688v16.019531c0 .187876.117292.304688.304687.304688h5.816407c4.596713 0 7.505859-3.33063 7.505859-8.302735 0-5.089619-2.815087-8.326172-7.505859-8.326172h-5.816407zm15.972657 0c-.186673.000001-.304688.116812-.304688.304688v16.019531c0 .187876.117894.304688.304688.304688H66.28125c.187876 0 .304688-.116812.304688-.304688v-2.697265c-.000001-.187876-.116812-.304688-.304688-.304688h-7.669922v-3.58789h5.746094c.186673 0 .304687-.117895.304687-.304688v-2.699219c0-.187877-.117894-.302734-.304687-.302734h-5.746094v-3.097656h6.966797c.164542 0 .280342-.093392.326172-.257813l.751953-2.720703c.04703-.211451-.046362-.351563-.257812-.351563h-11.28125zm-26.082032 3.142579c2.275203 0 3.636719 1.87593 3.636719 5.160156 0 3.213743-1.361516 5.207031-3.636719 5.207031s-3.658203-1.993288-3.658203-5.207031c0-3.284226 1.383-5.160156 3.658203-5.160156zm13.603516.1875h2.322266c2.275203 0 3.683593 1.78235 3.683593 4.996093 0 3.190167-1.408391 4.996094-3.683593 4.996094h-2.322266v-9.992187zm33.953125.798828c-1.465964 0-2.493158.957992-2.771485 2.580078l-.24414 1.568359h-.820313c-.086966 0-.140643.052585-.158203.140625l-.121094.714844c-.016478.104526.034149.173828.138672.173828h.785157L72.25 47.244141c-.018884.104524.03415.173828.138672.173828h.820312c.086966 0 .13749-.051712.15625-.138672l1.167969-7.183594h1.970703c.086963 0 .13869-.051712.15625-.138672l.123047-.716797c.017681-.104523-.036102-.171875-.140625-.171875h-1.935547l.244141-1.482421c.157325-.976066.769149-1.605469 1.58789-1.605469.191486 0 .365907.034988.558594.105469l.173828.070312c.086841.051721.157265.016647.208985-.070312l.365234-.66211c.052924-.088044.036164-.158137-.068359-.210937l-.261719-.103516c-.313689-.122204-.576101-.191406-.923828-.191406zm5.214844 3.974609c-3.312372 0-4.53125 3.138298-4.53125 5.31836 0 2.109578 1.184226 3.380859 3.259765 3.380859 3.313574 0 4.515625-3.171484 4.515625-5.333985 0-2.092017-1.186282-3.365234-3.24414-3.365234zm10.117187 0c-1.324997.052802-2.317628.646059-3.121094 1.691406-.10332.139763-.208129.103406-.224609-.035156l.085937-1.326172c.016479-.104523-.036101-.154297-.140624-.154297h-.556641c-.086965 0-.139443.050632-.158203.138672l-1.289063 8.03711c-.017681.104524.034149.173828.138672.173828h.820313c.086965 0 .13869-.051712.15625-.138672l.435546-2.736328c.488695-2.964644 1.814311-4.534236 3.714844-4.603516.086963 0 .13977-.052585.15625-.140625l.121094-.730469c.017681-.104526-.035352-.175781-.138672-.175781zm-10.15039 1.046875c1.377918 0 2.162109.871091 2.162109 2.371094 0 1.621004-.837446 4.236328-3.365235 4.236328-1.394277 0-2.162109-.871091-2.162109-2.371094 0-1.620883.819884-4.236207 3.365235-4.236328zM40.591797 51.183594c-.159677-.024853-.310635-.017276-.4375.021484-.507458.152634-1.0439.775198-.794922 1.541016l4.720703 13.925781c.404018 1.606931 1.531679 2.797273 3.347656 2.783203l8.189454.013672c1.978113.004691 2.514981-1.041363 2.947265-2.556641l4.412109-11.523437c.173803-.765819-.306762-1.55379-1.09375-1.75586l-.076171-.013671c-.770509-.173803-1.486045.53574-1.753907 1.099609l-3.132812 5.859375.191406.849609c.253789 1.137-.480118 2.285709-1.628906 2.560547 0 0-.855234.116252-1.470703-.167969 0 .000001.307293 1.801793-1.509766 2.230469-1.77845.419293-2.492322-.712602-2.763672-1.693359-1.044144 1.15456-2.736741 1.061955-3.412109-.220703l-4.523438-11.933594c-.179697-.590241-.731908-.944973-1.210937-1.019531zm-32.3593751 1.65625c-.1872748 0-.3046875.116811-.3046875.304687v16.019531c0 .187877.1172924.304688.3046875.304688h3.1894531c.187275 0 .304687-.116811.304687-.304688v-6.589843h6.097657v6.589843c0 .187877.116811.304688.304687.304688h3.167969c.187876 0 .304687-.116811.304687-.304688V53.144531c.000001-.187876-.116811-.304687-.304687-.304687h-3.167969c-.187876 0-.304687.116811-.304687.304687v6.123047h-6.097657v-6.123047c.000001-.187876-.117292-.304687-.304687-.304687H8.2324219zm22.0917971 0c-.187395 0-.304533.09339-.351563.257812-.586121 2.369141-1.36046 4.669034-2.228515 7.060547L24.4375 69.117188c-.070363.21145.023508.351562.257812.351562h3.308594c.16394 0 .281083-.069954.351563-.234375l.703125-1.96875h6.896484l.703125 1.96875c.069882.164425.187141.234375.351563.234375h3.308593c.234419 0 .328293-.140112.257813-.351562l-3.308594-8.958985c-.867936-2.391393-1.642395-4.691406-2.228516-7.060547-.047029-.16442-.164167-.257812-.351562-.257812h-4.363281zm37.919922 0c-.187997 0-.304533.09339-.351563.257812-.585039 2.369141-1.359709 4.669034-2.226562 7.060547l-3.308594 8.958985c-.070484.21145.022906.351562.257812.351562h3.308594c.163339 0 .281083-.069954.351563-.234375l.703125-1.96875h6.894531l.705078 1.96875c.070484.164425.189094.234375.353516.234375h3.304687c.233828 0 .328293-.140112.257813-.351562L75.1875 60.158203c-.867935-2.391393-1.642395-4.691406-2.228516-7.060547-.047029-.16442-.163686-.257812-.351562-.257812h-4.363281zm13.36914 0c-.187877 0-.304687.116811-.304687.304687v16.019531c0 .187877.11681.304688.304687.304688h3.191407c.186673 0 .304687-.116811.304687-.304688V53.144531c0-.187876-.117893-.304687-.304687-.304687h-3.191407zm7.435547 0c-.186674 0-.304687.116811-.304687.304687v16.019531c0 .187877.117893.304688.304687.304688h3.189453c.186674 0 .304688-.116811.304688-.304688V53.144531c0-.187876-.117894-.304687-.304688-.304687h-3.189453zm-35.794922 2.833984c-.139078-.006166-.2753.00968-.40039.044922-.500362.143252-.788569.694454-.640625 1.382812L53.671875 62.125c.296007 1.275562 1.705078 1.023438 1.705078 1.023438.683668-.152635 1.114024-.83717.958985-1.501954l-1.966797-5.109375c-.253759-.613153-.697999-.844782-1.115235-.863281zm-3.52539.050781c-.117865.009837-.19336.03125-.19336.03125-.667189.15504-1.112455.811642-.966797 1.5l2.0625 7.111329c.359394 1.214579 1.529297.947265 1.529297.947265.667189-.157325 1.115193-.813595.964844-1.501953l-2.060547-7.113281c-.244918-.944312-.982344-1.004119-1.335937-.97461zm-3.085938 1.1875c-.143677.004329-.289108.038363-.433594.091797-.56844.211451-1.011677.647247-.861328 1.337891l1.419922 4.939453c.352418 1.261489 1.529297.96875 1.529297.96875.662498-.15504 1.117931-.83717.962891-1.501953l-1.544922-4.779297c-.236079-.812246-.641234-1.069625-1.072266-1.056641zm-14.136719.3125c.087955 0 .177651.071924.212891.212891.281333 1.52466 1.030277 3.728527 1.710938 5.582031l.328124.9375h-4.501953l.328125-.9375c.680059-1.876959 1.40615-4.057371 1.710938-5.582031.035242-.140967.122983-.212891.210937-.212891zm37.919922 0c.087805 0 .175698.071924.210938.212891.280731 1.52466 1.032831 3.728527 1.71289 5.582031l.328125.9375h-4.503906l.330078-.9375c.680059-1.876959 1.407502-4.057371 1.712891-5.582031.035242-.140967.12118-.212891.208984-.212891z"/>
</svg>
