<svg xmlns="http://www.w3.org/2000/svg" width="225" height="225" viewBox="0 0 225 225">
  <path fill="#0a82c5" d="M223.8284 112.0456c.015 59.8-47.5813 111.2788-112.1575 111.98C48.204 223.0806-.104 172.798-.001 111.878.107 48.8645 51.0782.0807 112.076.123c61.7286.044 111.7624 50.154 111.7524 111.9226"/>
  <path fill="#fefefe" d="M97.429 90.8906c-.0574 2.0988.515 4.145.66 6.15-.566.4375-.9786.3338-1.4324.0238-.3487-1.0738-.4512-2.1875-.3187-3.3738-.558-.295-1.13.2338-1.633-.08-.874-.18-.399.3925-.393.7038-.013.685.195 1.3312.432 1.9525.222.58.045.985-.342 1.375-.606.131-.848-.225-1.004-.71-1.129-3.494-2.858-6.795-3.274-10.517-.119-1.056-.428-2.091-.696-3.355-4.919 1.522-9.77 3.132-14.94 3.902-.304 2.034-.387 4.122-.973 6.057-.553 1.825-.382 3.899-1.403 5.465-.817.04-1.18-.264-1.565-.516-.317-1.859-.472-3.723-.187-5.48-.396.885.16 2.045-.479 3.013-.204.229-.368.507-.734.547-.642-.125-.977-.67-1.442-1.136-.661.417-.295 1.413-1.065 1.817-.83-.114-1.205-.608-.976-1.477.7-2.647.665-5.389 1.069-8.074.296-1.97.687-3.927 1.006-5.894.164-1.016.261-2.044.396-3.126 1.121-1.275 1.197-2.992 1.571-4.59.734-3.14 1.265-6.315 1.581-9.529.061-.63.6-1.199.755-1.835.471-1.935.536-3.928.681-5.906.085-1.17.441-2.307.704-3.418.506-2.148.804-4.318 1.165-6.48.086-.524.105-1.022.549-1.379.26-.211.345-.498.374-.818.215-2.328 1.042-4.534 1.275-6.874.175-1.754 1.091-3.365 1.557-5.089.352-1.304-.075-2.696.792-4.128.848-.406 2.245.006 3.19-1.128.213-.626.248-1.464.943-2.065.989-.856 2.086-.804 2.719.331.471.846.837 1.747.935 2.756.122 1.257.096 2.591 1.393 3.426.279.18.38.722.456 1.117.982 5.11 2.212 10.172 2.941 15.327.346 2.449 1.044 4.859 1.264 7.287.358 3.958 1.044 7.848 1.764 11.733.683 3.687 1.235 7.407 2.312 11.016.785 2.628.928 5.373 1.298 8.073.147 1.07.379 2.116.629 3.159.126.522.315 1.004-.292 1.352-.495.131-.764-.169-.999-.532-.12-.163-.218-.335-.23-.546-.07.485-.332.963-.042 1.463m64.17-44.638c.814-.193 1.33-.845 1.795-1.41 1.765-2.141 4.009-3.839 5.603-6.135.297-.426.479-.901.76-1.344.504-.187.882.055 1.249.333.148.676-.62.935-.652 1.523.35.475 1.019.447 1.379.82.311.562.079.925-.31 1.255-1.852 1.579-3.271 3.576-5.012 5.25-1.626 1.565-3.366 3.012-4.969 4.612-.77.768-1.314 1.725-2.228 2.415.347 1.418 1.11 2.668 1.78 3.903 1.362 2.509 2.184 5.224 3.275 7.831.462 1.105.972 2.181 1.665 3.113 2.375 3.199 4.271 6.693 6.399 10.043.33.521.689 1.027 1.07 1.512.326.414.635.814.58 1.194-.209.842-.909.62-1.271.907-.209.326.007.776-.572 1.101-1.499-.109-2.71-.857-3.322-2.421-.471-.128-.833.06-1.288.105.621.961.99 1.95 1.26 2.905-.196.61-.619.757-1.16.837-.761-.485-1.313-1.222-1.816-1.942-.557-.232-1.038.365-1.722-.138-1.579-2.757-2.215-6.169-3.91-9.129-1.67-2.913-2.835-6.114-5.031-8.751.187-.665.038-1.396.372-2.061-.545-1.005-.991-2.043-1.914-2.774-1.106.513-1.293 1.664-2.053 2.46-.868.049-1.51.62-2.095 1.295-1.416 1.634-2.844 3.26-4.377 5.019.308 3.633.216 7.395.827 11.114.101.611.101 1.16-.134 1.793-.49 1.323-.255 2.733-.115 4.108.037.35.237.686-.042 1.124-1.074.567-1.472-.244-1.756-1.045-.703-.006-.628.764-1.135.847-.704.108-1.125-.564-1.094-1.788-.452-.335-1.165.105-1.57-.775-.344 2.239-.264 4.205-.33 6.113-1.455.211-1.755.034-1.767-1.08-.01-.82.114-1.642.183-2.536-.905-.718-1.129-1.685-1.02-2.845.185-1.979-.608-3.981.093-5.884.152-.593-.513-.835-.448-1.348.124-.444.247-.888.366-1.314-.425-1.275-.374-2.5178-.194-3.819.162-1.18.066-2.403.122-3.609.143-3.058.076-6.12-.084-9.193-.129-2.47-.093-5.0025.117-7.501.134-1.5965-.402-3.1565-.22-4.764.248-2.184.354-4.389.187-6.576-.11-1.439.055-2.925-.521-4.5065.702-2.315.03-4.7625-.468-7.216.456-.467 1.053-.1736 1.437-.531.515-1.0675.186-2.176-.025-3.2175.248-.581.67-.846 1.263-1.1.317.809 1.051.968 1.79 1.016.476.819.03 1.696.352 2.485.333.39.93-.066 1.247.3527.347.296.162.685.21 1.028-.282 1.687-.158 3.371.029 4.89-.041-.206.013-.541.29-.818.136-1.198.273-2.397.441-3.883 1.443 1.065.398 2.39 1.014 3.611.188.259.841-.2588 1.37.15.384 8.309.051 16.625.054 25.01 4.244-5.215 9.436-9.5526 13.13-15.136 3.013-.099 3.403-2.9366 5.04-4.539.471.199.723.63 1.085.979-.397 1.3422-1.949 1.85-2.291 3.17.469.3334.74.151 1.009-.1478.754-.842 1.522-1.662 2.09-2.661.471-.83 1.176-1.25 2.12-.8.159.446-.049.716-.269.91-2.241 1.97-3.691 4.684-6.096 6.5-.094.071-.079.286-.115.434-.348 1.28-1.286 2.156-2.125 3.097-.373.418-.815.775-1.11 1.246-.043.08-.118.137-.216.159.066.103.12.086.167-.06 1.235-1.244 2.16-2.769 3.625-3.776M38.89 65.75c.195-1.1774.156-2.36.052-3.541-.075-.8564.226-1.3776 1.115-1.4626.816.523.814 1.299.7627 2.075-.25 3.794-.219 7.599-.6 11.393-.143 1.42-.458 2.957.302 4.376.191.356.122.7773.033 1.2023-.188.9-.233 1.8214.036 2.898 1.93-.169 3.827-.334 5.726-.5.358.622-.122.78-.52.965.018-.006-.073.036-.073.036s.0673-.0076.084-.014c.301-.07.567-.2636.881-.13.175.009.35.018.525.028.436-.224.981-.019 1.389-.354 1.015-.352 2.077-.48 3.13-.662.802-.139 1.625-.2666 2.041-1.12.335-.235.714-.4216.984-.935.242-.413-.63-1.2466.371-1.553.105-.542-.57-.715-.4-1.296.429-1.4686.1623-3.0374-.13-4.426-.3477-1.6526-.201-3.224-.194-4.8376.005-1.031.097-2.04.2684-3.065.309-1.85-.097-3.76.108-5.592.238-2.121-.375-4.181-.1-6.259.168-1.268-.486-2.553.131-3.791.228-.489.876-.276 1.185-.744.05-1.332.073-2.71-.372-4.107 1.166-.559 1.731-1.373 1.499-2.608-.072-.383.099-.808.368-.976 1.307-.819 1.137-2.154 1.261-3.383.043-.422.205-.79.368-1.28 1.139.296 1.293-1.47 2.526-1.19.594.303.694.833.504 1.429-.48 1.51-.342 3.054-.29 4.594.14.339.19.676.02 1.006.262-.27-.05-.702.235-.979.317-.587.674-1.076 1.493-.567-.419 19.013-.278 38.06-1.789 57.188-.301.524-.926.166-1.426.221-.293.45.103.954-.098 1.248-.54.838-1.199.718-1.905.605-.435-.93-.105-1.956-.412-2.849-.425-.174-.745-.135-1.006.348-.076.9688 1.084 1.885.3864 3.0038-.388.3625-.823.371-1.4366.116-.831-1.354-.14-3.47-1.764-4.47-.237-.563.31-.843.229-1.283-.205-.144-.404-.2824-.639-.446-.096-1.3275-.194-2.675-.295-4.0825-4.306.35-8.4775 2.079-12.829.553-.34 1.542-.086 2.991-.25 4.416-.167 1.458.0515 2.971-.9335 4.273-.246.325-.182.885-.276 1.426-.314.23-.681.5-1.005.737-.318.681.097 1.392-.26 2.024-.54.4285-1.044.195-1.348.072-.655-.562-.181-1.181-.561-1.6484-.64.55-.334 1.341-.54 1.984-.129.411-.654.27-.869.645-.143.874.424 1.918-.375 2.694-.551.23-.96.121-1.346-.261.161-5.154.017-10.298-.479-15.48.096-.406.55-.505.883-.714.025-7.578-.727-15.124.608-22.379.337-.677.962-.547 1.275-1.013.021-.403.047-.86.07-1.279.753-.82.753-.82 1.025-1.8478 1.177-.455 1.516-.368 1.968.566.156.321.238.68.353 1.021.2817.225.124.5325.164.761.0666-.2264-.075-.5414.159-.779M104 78.1142c-.8223-3.389-1.59-6.792-2.496-10.159-.3475-1.288-.9413-2.5-.5813-3.767-.1726-.686-.6526-1.049-.854-1.388-.4663-3.773-1.7463-7.255-1.6125-11.046.994-1.753.961-2.127.634-4.822-.116-.963.334-1.973.765-2.809-.257-.534-.7483-.174-1.035-.55-.667-2.999.6317-16.433 1.844-18.775.4527-.393 1.024-.031 1.304-.164 2.222-2.44 4.9283-3.612 7.8283-4.381.7025-.186 1.4837-.113 2.2637.182 1.0866.41 2.319.435 3.399.857 2.226.8686 3.5126 2.771 4.6876 4.72.455.755.8775 1.501 1.7 1.93.3 1.086.2087 2.277.9325 3.237.1125.149.1487.401.1275.595-.2 1.7975-.022 3.585.243 5.4575-1.183.245-1.109 1.58-1.713 1.959-.869.152-.8962-.613-1.3862-.633-.806 1.193.194 2.943-1.219 3.938-.775-.101-1.055-.515-1.1966-1.223-.5587-2.782-.81-5.597-1.0187-8.42-.0966-1.296-.4316-2.533-.9866-3.748-.4538.125-.3088.713-.75.923-1.2526-.015-.7188-1.564-1.5638-1.9666-.657-.231-1.465.204-1.957-.568-1.807 1.295-3.14 2.737-3.621 4.857-1.25.449-1.573 1.385-1.668 2.64-.239 3.143-.356 6.281-.213 9.429.006.154.067.346 0 .457-1.241 2.046-.33 4.116-.068 6.17.319 2.504.681 5.001 1.051 7.498.106.71.308 1.406.468 2.117.035.504-.463.78-.574 1.289.217 1.165.364 2.399.689 3.585.711 2.604.921 5.271 1.162 7.937.169 1.86.57 3.627 1.465 5.315.645 1.213.995 2.586 1.624 3.827.232.459.445.93.71 1.37 1.127 1.878 3.513 1.983 4.635.108 1.006-1.685 2.287-3.032 3.942-4.043.532-.325.813-.734.8-1.38-.04-1.853.386-3.663.605-5.489.142-1.199.185-2.326-.079-3.511-.206-.931-.529-1.919 0-2.88.189-.429.757-.285 1.075-.749-.2-1.219.77-2.021 1.266-2.899.594-.371 1.019.11 1.326.028.867-.272 1.364-1.567 2.43-.452-.595 2.417-.28 4.942-.55 7.432-.076.696-.165 1.437.382 2.062.252.287.151.693.12 1.05-.284 3.178-.461 6.373-.908 9.53-.248 1.753-1.098 3.386-1.996 4.933-.461.797-1.021 1.539-1.536 2.304-.411.351-.765-.233-1.234-.04-.567.485-.69 1.648-1.604 1.53-.713-.142-.578-.635-.831-.904-.113.104-.255.186-.323.31-.85 1.557-1.892 2.18-3.628 1.944-1.466-.199-2.908-.577-4.368-.833-1.765-.31-2.926-1.478-3.939-2.796-2.165-2.82-3.943-5.873-5.323-9.158-.203-.481-.248-.876.083-1.287.51-.283.99-.325 1.397.168.074.087.047.244.194.305-.09-.123-.099-.266-.158-.397-.142-.239-.045-.524-.169-.76m16.025 52.144c2.146-1.523 2.989-1.277 4.039.832 2.5 5.027 4.49 10.2737 6.734 15.41 1.234 2.822 2.2023 5.757 3.6573 8.487.455.853.662 1.838.985 2.761.272.782.691 1.478 1.251 2.208.639-1.021.584-2.101.399-3.045-.534-2.716-.145-5.449-.361-8.159-.165-2.056-.0426-4.096-.071-6.14-.0266-1.874-.4828-3.756-.5766-5.659-.158-3.227-.912-6.405-.815-9.656.014-.484.102-.914.508-1.361 1.273-.131 2.733.382 3.853-.631.842.117 1.198.562 1.399 1.3.238.87.221 1.733.21 2.608-.021 1.805.038 3.6178-.096 5.414-.189 2.5176.41 4.9826.323 7.5-.09 2.565.158 5.136.304 7.706.409 7.2466.625 14.504 1.196 21.7416.114 1.455-.052 1.701-1.577 2.252-.827-.558-1.83-.674-2.823-.565-.87-.483-1.235-1.346-1.667-2.053-2.374-3.886-4.52-7.881-6.224-12.135-1.004-2.507-2.017-5.057-3.457-7.3882-.4267-.689-.799-1.44-.948-2.273-.086-.486-.2285-.98-.855-1.338-.112 1.767-.3735 3.393-.282 5 .188 3.283-.045 6.583.318 9.848.365 3.29.019 6.5764.175 9.8614.024.476.144.901.264 1.3486.2372.885.2672 1.749-.6678 2.4522-1.207.187-2.519.391-3.869.601-.883-.188-1.561-.673-1.752-1.618-.437-1.805-.137-3.6175-.132-5.4287.006-2.765-.185-5.557.041-8.287.181-2.184.349-4.407.394-6.57.045-2.169.3-4.374-.022-6.584-.241-1.655-.14-3.3927.04-5.069.21-1.961-.045-3.92.169-5.869.275-2.51.402-5.0184-.06-7.505m-43.164 39.904c-.3168 1.1114-.38 2.039-.2318 3.11.459 3.3026.65 6.6414.3577 9.8876-1.273.925-2.517 1.181-3.81.671-1.78.875-1.78.875-3.424-.283-.373-.797-.291-1.67-.191-2.541.311-2.685.516-5.379.568-8.081.02-1.025-.321-2.029-.255-3.069.291-4.565.056-9.131-.041-13.694-.0735-3.501-.391-6.996-.5535-10.496-.066-1.4365-.009-2.8677.176-4.3115.241-1.891-.165-3.787-.424-5.655 1.215-1.411 3.0163-1.4483 5.908-.146.939 9.306.081 18.72 1.74 28.09 3.226.306 6.137-1.1273 9.246-1.116.063-.849.046-1.454-.114-2.058-.119-.449-.248-.906-.168-1.374.605-3.537-.01-7.057-.269-10.566-.203-2.7523-.047-5.5085-.313-8.25-.119-1.2173-.402-2.42-.506-3.6373-.084-.995-.427-2.056.44-3.072 1.801-.132 3.623-1.165 5.718-.32-.345 16.104.736 32.089 1.086 48.255-.048.16-.277.364-.574.48-1.228.48-2.436 1.029-3.696 1.403-1.234.365-2.165-.396-2.17-1.676-.009-2.435-.074-4.877.071-7.305.095-1.594.302-3.167-.04-4.747-.031-.141-.105-.2724-.201-.516-2.74.716-5.522 1.07-8.332 1.02m88.357-33.835c-.862 2.2186-3.424 3.8536-5.135 3.306-.259-2.5725-.429-5.186-1.015-7.741-.253-1.1014-.477-2.214-.81-3.2914-.42-1.351-1.173-1.917-2.309-1.904-1.129.014-2.071.728-2.408 2.04-.382 1.497-.632 3.027-.924 4.545-.535 2.78-.93 5.582-.924 8.415.006 2.628-.533 5.213-.468 7.847.111 4.429.208 8.858 1.141 13.206.245 1.143.781 2.223 1.192 3.353 2.159 1.016 3.892.107 5.549-1.153 1.147-.875 1.688-2.1066 2.192-3.4266.426-1.113.674-2.221.816-3.391.11-.892.134-1.736-.286-2.6-1.5168-.315-2.8218.858-4.4618.635-.694-1.454-.661-3.091-.866-4.667 1.258-1.334 2.738-1.0925 4.201-.8975 1.495-.784 3.006-1.471 4.722-1.169.835 3.282.239 6.465-.079 9.675-.289 2.912-1.161 5.622-2.196 8.316-.954 2.486-2.98 3.599-5.379 4.146-1.042.237-2.154.226-3.235.232-2.009.01-3.59-.786-4.565-2.621-.167-.315-.38-.619-.624-.879-1.99-2.121-2.359-4.76-2.629-7.515-.272-2.782-.04-5.577-.318-8.329-.238-2.35-.213-4.711-.515-7.056-.21-1.624.247-3.266-.025-4.922-.498-3.024.548-5.889 1.01-8.821.365-2.326 1.152-4.429 2.311-6.461 1.667-2.928 4.367-4.089 7.471-4.506 2.117-.286 4.605 1.626 5.52 3.525 1.033 2.143 1.667 4.37 2.042 6.671.221 1.353.1473 2.749.549 4.093.131.44.215.891.4523 1.346m-49.046 42.008c-.96.842-2.021 1.08-2.651 1.776-1.271.184-1.806-.306-2.31-1.393-.884-1.908-.656-3.928-1.007-5.879-.317-1.77-.492-3.566-.742-5.348-.035-.25-.1062-.507-.455-.715-2.115.565-4.414.083-6.778.755-.229 1.147-.555 2.433-.73 3.739-.258 1.94-.555 3.868-1.1012 5.75-.029.099-.108.204-.091.292.175.925.336 1.961-.382 2.619-.858.787-2.201.724-3.193 1.393-.221.149-.606.02-1.037-.255-.8434-1.482-1.346-3.287-.881-5.037.843-3.173 1.12-6.455 2.073-9.603.665-2.199 1.246-4.456 1.626-6.695.414-2.444 1.374-4.722 1.724-7.15.411-2.845 1.19-5.597 1.9074-8.369.155-.6.101-1.234.123-1.835.085-2.305 1.343-4.315 1.535-6.581.069-.815.35-1.63.308-2.434-.041-.785.36-1.245.853-1.847 1.094.368 1.9525-.875 3.1275-.56.379.168.4764.501.545.872.373 2.0236.704 4.0524.859 6.1086.284 3.751.919 7.459 1.426 11.183.36 2.649.624 5.319 1.1514 7.935.71 3.524 1.1777 7.089 1.97 10.601.365 1.62.64 3.306.8527 4.985.2387 1.899.49 3.856 1.2787 5.693m-66.389 2.596c.59-.08 1.044-.155 1.501-.2 1.69-.165 3.03-1.147 3.434-2.792.4-1.63 1.011-3.253.681-4.9962-.117-.622.109-1.206.704-1.4 1.289-.418 2.501-1.318 4.166-.651.458.506.605 1.164.362 2.089-.375 1.424-.653 2.906-.71 4.374-.1065 2.727-1.614 4.592-3.554 6.192-.6175.509-1.2625 1.022-2.009 1.41-2.581 1.341-7.822.494-9.906-2.133-.707-.891-1.157-1.955-1.153-2.968.006-1.588-.414-3.054-.752-4.5462-.6025-2.657-.691-5.376-1.084-8.0582-.169-1.159.317-2.324.21-3.531-.274-3.061-.0264-6.112.237-9.172.204-2.346.47-4.696.488-7.064.016-2.259.47-4.51 1.546-6.459 1.183-2.145 2.751-4.12 5.074-5.205 2.1-.98 4.015-.981 6.206.38 2.267 1.409 2.481 3.547 3.047 5.608.543 1.979.465 4.062.533 6.082-.744.954-2.065.849-2.652 1.727-.566.093-1.023.085-1.502-.054-.4366-.377-.735-.891-.725-1.459.016-1.075.0422-2.171.256-3.219.344-1.678-.0438-3.142-.9-4.507-.711-.361-1.3226-.261-1.9626.07-1.48.7662-2.853 1.6-3.529 3.2612-.441 1.08-.176 2.21-.451 3.319-1.074 4.334-.834 8.78-.96 13.199-.059 2.006-.023 4.018-.145 6.02-.244 4.019.58 7.886 1.594 11.723.302 1.146 1.037 2.106 1.957 2.962m140.465-57.624c-3.171.801-6.1823 1.289-9.339 1.67-.206 3.2474-.295 6.3624-.307 9.826-.531.764-.454 1.928-.1 3.095.154.504.2575 1.013.1925 1.524-.278 2.196-.036 4.425-.45 6.617-.161.854-.151 1.744.279 2.614 2.581-.199 5.119-.922 7.969-.667 1.078.7775.723 2.1175.888 3.335-.9976.671-1.961 1.136-3.0626 1.186-1.34.0615-2.639.4215-3.994.4265-1.143.002-2.0266.872-2.023 1.964.009 2.772.124 5.542.2 8.44 3.038.184 5.555-1.806 8.635-1.617.897 1.4.208 3.0164.499 4.67-4.428 1.129-8.492 3.3214-13.166 3.039-.611-.091-.809-.55-.815-1.105-.012-1.1326-.011-2.269-.022-3.3976-.021-2.077.3474-4.167-.104-6.235-.146-.665-.0736-1.337-.08-2.006-.0586-6.889-.1486-13.7774-.166-20.666-.0076-2.9764-.054-5.94-.284-8.913-.126-1.619-.21-3.275-.146-4.875 1.4524-1.611 3.4774-1.4523 5.285-1.915 2.996-.765 6.069-.98 9.2324-1.291 1.34 1.145.516 2.75.88 4.282"/>
  <path fill="#fdfefe" d="M132.3546 106.691c-.1762 2.75-2.8087 3.5374-4.2 5.421.54 1.6564 1.0738 3.3664 1.6613 5.0576.275.7888.211 1.3988-.527 1.805-.691.0975-1.111-.32-1.634-.5662-.44-2.0663-.832-4.1275-2.027-5.7988-2.511.0963-4.805.52-7.164 1.5-.237 1.5538.105 3.395-.287 5.2475-.301.467-.935.494-1.305.805-.546.047-.87-.171-1.124-.521-.028-.106-.084-.207-.074-.304.386-3.87.617-7.75.74-11.637.031-.962.327-1.918-.09-2.891-.205-.477.177-.869.424-1.109.997-.681 1.971-.083 2.947-.282 1.852-.375 3.633-1.157 5.572-1.102.975.028 1.965-.097 2.922.033 1.707.232 2.861 1.297 3.6 2.812.245.503.39 1.055.561 1.533m-37.393 8.244c-.08-2.395.761-4.529 1.836-6.595.37-.712 1.089-1.077 1.69-1.524 1.616-1.201 3.315-2.207 5.419-2.409 2.866-.276 4.592 1.169 5.993 3.452 3.915 6.374-1.896 13.296-8.134 13.116-2.335-.066-4.778-.77-6.247-3.081-.6-.945-.615-1.934-.559-2.959"/>
  <path fill="#fdfdfe" d="M91.8187 108.1654c.4113 1.7.2425 1.9475-1.0525 2.1875-2.2237.413-4.4412.867-6.6637 1.287-.7763.147-1.4388.507-2.1025.945-.1263.893.3937 1.732.0525 2.626 2.5075.714 4.8987-1.181 7.3-.123.5575.872.23 1.392-.5925 1.715-1.0138.399-2.0538.676-3.1625.597-1.1488-.083-2.2475.105-3.4025.705.1437 2.042-.335 4.099-.0888 6.21.0975.831-.0462 1.866-1.0387 2.369-1.3288-.462-1.7125-.994-1.6325-2.344.11-1.85.2125-3.7.3687-5.546.2213-2.601-.0325-5.203.0238-7.944 3.815-1.584 7.8275-2.309 11.9913-2.686"/>
  <path fill="#fafcfd" d="M63.9838 127.0234c-.2076-.6563.14-.8275.2524-1.0975.095-.232.0838-.514.3038-.715 2.7912-1.065 5.3275-2.648 7.8912-4.183.6375.606.585 1.098.4513 1.603-2.5725 2.26-5.9775 2.724-8.8987 4.391"/>
  <path fill="#f8fbfd" d="M139.6867 113.9056c-.6375-.585-.7862-1.015-.2762-1.625 3.905-1.115 7.345 1.01 11.0475 1.8163-.2888.711-.7838.581-1.215.517-1.0662-.162-2.1275-.357-3.19-.544-2.1275-.376-4.2538-.755-6.3662-.165"/>
  <path fill="#f7fafc" d="M137.271 102.9246c3.6526-2.25 7.19-4.4312 11.169-5.95.1224.7775-.295.9238-.6476 1.1188-3.085 1.7137-6.2775 3.25-9 5.5587-.5313.45-.805.302-1.5213-.727"/>
  <path fill="#f5f9fc" d="M72.455 112.2973c.3587.7012.215 1.1212-.3937 1.4774-3.595-1.5074-7.425-2.47-11.4476-3.98 1.4688-.6787 2.545-.1874 3.5988.1088 2.0537.58 3.9687 1.6288 6.1487 1.7913.7788.0575 1.3726.6862 2.0938.6025"/>
  <path fill="#f6fafc" d="M63.381 117.7905c1.8725.2213 3.5775-.375 5.245-1.1038 1.2-.525 2.1088-.01 2.1162 1.3238-3.8037.3825-7.5724 1.0775-11.355 1.675-.3837.0725-.875.4537-.9662-.3313 1.2387-.6887 2.5675-1.015 3.9837-.9875.4075-.0524.59-.4874.9763-.5762"/>
  <path fill="#f4f9fc" d="M149.1883 106.328c-2.7375.6224-5.535 1.021-7.9113 2.2486-.7712-.3637-.7175-.8362-.6837-1.3587.7862-.475 1.61-.8 2.4662-.403.6713-.234 1.0125-.917 1.7275-.81 1.305-.249 2.6238-.068 3.935-.108.2812-.009.4912.091.4662.43"/>
  <path fill="#1c8cc9" d="M69.885 95.5036c-.0814-1.58-.2914-3.1737.551-4.6625.5264 2.379-.2 4.763.115 7.129-.4974-.226-.3074-.684-.3624-1.062-.0712-.474.2275-1.03-.3037-1.404"/>
  <path fill="#2690cc" d="M157.8092 49.858c1.15-1.4236 2.2988-2.8474 3.4488-4.271.0425.2586.03.545.3412.666-1.0562 1.529-2.2275 2.955-3.7125 4.0964-.16-.1425-.1862-.3063-.0775-.4913"/>
  <path fill="#5fadd9" d="M53.7843 80.948c-.0288.3975.0287.82-.4976 1.205-1.2962.5125-2.8987.3925-4.3775.8637-.2424-.0587-.5212-.005-.715-.2225l.015-.6187c1.0638-.48 2.2188-.1675 3.3125-.385.5413-.1288 1.1313-.1075 1.5925-.4975.2238-.115.4463-.23.67-.345"/>
  <path fill="#1e8dca" d="M142.6767 31.9904c-.0975.9062.1488 1.83-.2637 2.73-.4725-2.2563-.5913-4.5213-.055-6.8025.0075.995.0063 1.991.0262 2.986.0076.38-.1312.814.2926 1.086"/>
  <path fill="#dcedf7" d="M149.1883 106.328c-.6525-.574-1.4338-.21-2.1513-.2776-.745-.0688-1.5-.0338-2.25-.045 1.685-.4713 3.4063-.18 5.1438-.2988.0537.66-.31.6838-.7425.6213"/>
  <path fill="#cee6f3" d="M51.657 81.9066c-1.1375.2463-2.2612.6525-3.4475.2688-.0262-.095-.0237-.1875.0063-.28.7975-.42 1.6925.0362 2.5012-.28.1013-.0225.2013-.0175.2988.0162.19.1488.5037.005.6412.275"/>
  <path fill="#57aad7" d="M97.429 90.8906c-.4974-.7687-.2024-1.635-.3224-2.465.5275.405.6863.9288.5938 1.5488-.355.2275-.1513.62-.2713.9162"/>
  <path fill="#eff7fb" d="M51.657 81.9066c-.2337-.0462-.495-.0237-.6412-.275.7-.1125 1.3987-.2262 2.0987-.3387-.1237 1.062-1.0037.332-1.4575.613"/>
  <path fill="#5babd8" d="M104.007 78.1186c.209.1638.26.3988.2926.6438.1513.3062.2525.5875-.2762.5575-.1738-.802-.7688-.557-1.2813-.517.208-.623 1.029-.115 1.265-.685"/>
  <path fill="#95c9e6" d="M46.699 83.056c-.41.219-.815.46-1.311.289.0036-.0664.0074-.1326.01-.199.3624-.2636.981-.276.9286-.9474.3888.1713.305.5475.3725.8575"/>
  <path fill="#5fadd9" d="M50.7167 81.6154c-.7912.475-1.6762.105-2.5012.28.7688-.6713 1.665-.2138 2.5012-.28"/>
  <path fill="#5aabd8" d="M94.313 94.3144c-.38-.41-.285-.8775-.23-1.3925.3275.195.495.423.6225.688-.3425.116-.305.445-.3925.704"/>
  <path fill="#8ec5e4" d="M63.381 117.7905c-.1825.435-.4725.685-.9763.5763.4376-.0013.1163-1.29.9763-.5763"/>
  <path fill="#cee6f3" d="M48.1946 82.7946c.2488.04.52.0063.715.2225-.5575.147-1.12.135-1.685.067.2688-.28.6413-.209.97-.289"/>
  <path fill="#d8eaf5" d="M58.4215 119.354c.21.4376.635.249.9663.3314-.3425.2687-.7225.345-1.14.2262-.225-.2837-.115-.4487.1737-.5575"/>
  <path fill="#b2d8ec" d="M62.1254 40.955v1.3288c-.3913-.6275-.2775-.9988-.255-1.3563.0862 0 .1712.0088.255.0275"/>
  <path fill="#5aabd8" d="M38.898 65.759c.0524.2474.1036.4936-.084.7474-.37-.1575-.2036-.4788-.2386-.73.1075-.0063.215-.0113.3225-.0175"/>
  <path fill="#0a83c5" d="M83.8072 35.8645c.625 5.1225 1.9313 10.08 2.6688 15.295-.7037.5925-.6663 1.45-.4913 2.51.4588 2.7887.7038 5.6137 1.0488 8.4225.3937 3.1987.7788 6.3987 1.2175 9.5912.1475 1.0763.1212 2.1413.1862 3.3813-4.27.74-8.43 1.76-12.91 2.8062 1.7626-14.355 4.1076-28.3462 8.28-42.0062"/>
  <path fill="#228ecb" d="M72.7586 69.3942c-.3612 3.37-.6637 6.435-1.3875 9.5888-.597-1.775.22-7.71 1.388-9.5888"/>
  <path fill="#3196ce" d="M80.728 83.986c-1.9875.4086-3.95.9624-6.1075 1.205.675-1.149 1.3762-1.3326 5.105-1.4876.2888-.1575.5975-.125.9063-.0938.1037.0625.1525.1388.1462.23-.0063.0975-.0225.1463-.05.1463"/>
  <path fill="#3a9bd0" d="M84.533 27.5784c.3076.9112.7714 1.8312.304 2.87-.894-.6263-.9514-1.07-.304-2.87"/>
  <path fill="#54a8d6" d="M79.1967 42.567c-.1587 1.229.3013 2.51-.3112 3.7014-.4012-.57.0287-1.26-.2662-1.845-.1226-.7625.2887-1.4538.295-2.1988.2687-.0312.46.0038.2824.3425"/>
  <path fill="#5cacd8" d="M90.0088 61.753c.505.9274.6925 1.901.4062 3.255-.5938-1.2414-.4475-2.264-.3812-3.275l-.025.02z"/>
  <path fill="#98cae6" d="M93.7192 91.4775c-.4712-.4725-.2312-1.0538-.2425-1.5963.2575-.2587-.0762-.7287.3338-.9325.5175.8.0962 1.69.2437 2.525-.11.1738-.2212.175-.335.0038"/>
  <path fill="#2e94ce" d="M89.7524 60.7978c-.3525-.7913-.535-1.605-.3113-2.4688.079-.1375.158-.145.237 0 .323.7963.463 1.6175.338 2.475-.091.1475-.179.1375-.262-.0062"/>
  <path fill="#a6d1ea" d="M74.202 75.049c.0826.87-.1324 1.6912-.42 2.5787-.46-.925-.011-1.7375.119-2.5637.0936-.145.1936-.1425.301-.015"/>
  <path fill="#80bee0" d="M73.2414 66.6778c-.065.8237-.1013 1.6574-.7475 2.5124-.182-.905.341-1.535.246-2.2287.102-.2075.239-.3575.501-.2837"/>
  <path fill="#49a3d4" d="M79.1967 42.567l-.2825-.3424c-.0924-.7262.1363-1.3687.515-1.98.0338.7888.255 1.59-.2324 2.3225"/>
  <path fill="#72b7dd" d="M91.8954 86.8076c-.115-.6162-.4675-1.1962-.2875-1.8587.185-.163.05-.475.285-.614.53.541.131 1.266.371 1.865.046.305.225.691-.369.607"/>
  <path fill="#93c8e5" d="M93.173 87.467c-.1026-.665-.204-1.3312-.3214-2.0925 1.1488.5113.475 1.3825.635 2.0338-.0875.115-.19.1387-.3137.0587"/>
  <path fill="#a9d3ea" d="M94.6664 76.9205v1.7288c-.6988-.505-.6113-1.13-.61-1.7288.2037-.19.4062-.1787.61 0"/>
  <path fill="#3498cf" d="M80.728 83.986c.0013-.085.0013-.169.0013-.254-.1088-.061-.145-.1224-.1088-.1836.0362-.0613.0725-.0913.11-.0913l1.8675-.292c.1175.137.12.277.01.418-.6275.135-1.2537.269-1.88.404"/>
  <path fill="#83c0e1" d="M89.0883 55.2428c.51.4562.2262 1.045.2612 1.58-.0925.1112-.1087.2974-.3037.305-.4438-.6488-.3238-1.28.0612-1.9026l-.0187.0175z"/>
  <path fill="#2691cc" d="M83.1653 83.091c.5537-.3462 1.1437-.3925 1.7824-.2337-.2087.605-.6824.5387-1.1387.51-.1838-.1625-.4975-.025-.6438-.2763"/>
  <path fill="#dcedf6" d="M88.7674 76.5826c-.395 1.15-1.125-.1037-1.6663.5663.055-.834.422-.827.77-.844.24.281.643.039.897.277"/>
  <path fill="#3d9cd1" d="M91.893 84.335c-.034.2325-.009.4938-.2864.6138l-.2762-1.8513c.0837-.13.1575-.1237.2187.0188.442.3137.214.8162.344 1.2187"/>
  <path fill="#439fd3" d="M73.2414 66.6778c-.1675.095-.3338.19-.5013.2837-.063-.4813-.172-.9738.352-1.3525.328.3338.189.71.15 1.0688"/>
  <path fill="#acd5eb" d="M87.794 81.0555c-.5064.7025-1.049.4675-1.5664.3812.4488-.18.8338-.5737 1.5663-.3812"/>
  <path fill="#84c0e2" d="M89.991 71.359c-.3424-.32-.2986-.6888-.21-1.105.7076.1687.555.6612.554 1.0862-.1064.1488-.2214.155-.344.0188"/>
  <path fill="#9acce7" d="M72.186 90.0377c-.224-.3412-.1414-.645.0674-.9412.4475.0387.39.33.35.5612-.035.2038-.1763.3625-.4175.38"/>
  <path fill="#badbee" d="M80.1184 37.6817c.065.44.0412.83-.3775 1.1613-.337-.6313.068-.8925.377-1.1613"/>
  <path fill="#a0cfe8" d="M89.1065 55.2253c-.96-.0338-.5162-.775-.6237-1.2375.1062-.1338.21-.1388.31.0075.2.3912.3812.7875.295 1.2475l.0187-.0175z"/>
  <path fill="#1286c7" d="M78.6186 44.423c.4675.56.1525 1.234.2663 1.845-.009.0864-.029.17-.06.2514-.597.0387-.37-.3463-.328-.6363.041-.486.081-.973.121-1.46"/>
  <path fill="#69b3db" d="M78.498 45.8833c.0986.2175.045.5125.3274.6362.0462.31.0162.5887-.37.7688-.2925-.4838-.2925-.9426.0425-1.405"/>
  <path fill="#3196ce" d="M89.0454 57.128c.1012-.1014.2025-.204.3037-.305.207.481.393.966.329 1.506h-.236c-.067-.421-.441-.7424-.396-1.201"/>
  <path fill="#a9d3ea" d="M87.2676 77.3504c-.335.6375-.5975.4387-.88.3562.1138-.6712.4588-.4012.88-.3562"/>
  <path fill="#d7eaf5" d="M75.5747 59.0826c-.1312-.4037-.2512-.77.2713-.9925.3137.458 0 .703-.2713.993"/>
  <path fill="#d0e7f3" d="M94.6664 76.9205h-.61c.0012-.3762-.0025-.7512-.1113-1.1425.535.235.452.795.722 1.1425"/>
  <path fill="#80bfe1" d="M88.7925 53.9946c-.1038-.0025-.2063-.005-.31-.0062-.0813-.3625-.1638-.7238-.2663-1.1813.7776.233.47.799.5763 1.188"/>
  <path fill="#cee6f3" d="M91.8954 86.8076c.2975-.0962.2925-.3762.3687-.6075.345.388.337.765.018 1.142-.406-.025-.367-.297-.386-.534"/>
  <path fill="#6ab3dc" d="M93.173 87.467c.105-.02.2086-.0387.3136-.0587.445.3625.175.855.235 1.2875-.1037.1362-.2037.1262-.2987-.01.037-.4313-.413-.7626-.25-1.2188"/>
  <path fill="#c6e2f1" d="M78.5345 49.0054c-.0275.2137-.135.3687-.4612.5125-.175-.523-.28-.985.1537-1.438.3312.232.0337.673.3075.925"/>
  <path fill="#9fcee8" d="M89.991 71.359l.344-.0188c.091.3525.5036.655.166 1.0875-.6024-.1587-.4374-.6712-.51-1.0687"/>
  <path fill="#60aed9" d="M91.2 82.557c-.265-.3536-.345-.7274-.1263-1.136.33.0074.4538.1886.4438.49-.1763.181 0 .535-.3175.646"/>
  <path fill="#1085c7" d="M83.1653 83.091c.2362.0425.4987.0213.6437.2763-.4.0725-.8013.1437-1.2013.215-.0024-.1388-.0062-.2788-.0087-.4175.1887-.025.3775-.0488.5662-.0738"/>
  <path fill="#e4f1f8" d="M69.74 84.2904c-.15-.4075-.0276-.5775.326-.7163.119.324.255.592-.326.717"/>
  <path fill="#add6eb" d="M88.156 51.7636c-.165-.0475-.2526-.1637-.2-.3212.02-.065.156-.1375.23-.1288.165.0213.25.16.2024.3163-.0188.062-.1525.09-.2325.133"/>
  <path fill="#3e9dd2" d="M93.4234 88.6855c.0987.0025.1987.0063.2975.01.038.0813.068.165.09.2538-.117.3087.081.73-.335.9325-.074-.3963-.152-.7925-.053-1.1963"/>
  <path fill="#cfe6f3" d="M90.613 51.594c.0764.0436.2.0724.2214.135.0512.1524-.0363.2774-.195.29-.0725.006-.1988-.065-.2188-.1276-.05-.1488.0313-.26.1925-.2975"/>
  <path fill="#ecf5fa" d="M93.035 61.4382c-.0426.155-.15.235-.2964.1838-.0612-.0225-.1262-.1488-.1187-.2188.016-.155.142-.2362.288-.1837.061.0212.086.1425.126.2187"/>
  <path fill="#e9f3f9" d="M88.5745 62.059c.0363-.0638.065-.185.1263-.205.15-.05.2712.0362.2837.1913.005.0724-.0637.1987-.125.2162-.1438.0425-.2613-.0238-.285-.2025"/>
  <path fill="#3699d0" d="M93.7192 91.4775l.335-.0038c.1238.2638.3088.5288-.0412.8126-.4425-.1376-.265-.5163-.2938-.8088"/>
  <path fill="#9bcce7" d="M78.5345 49.0054c-.4037-.2075-.2438-.6038-.3075-.925.6675.1212.2062.6162.3075.925"/>
  <path fill="#ecf5fa" d="M89.08 63.5084c-.155-.0425-.235-.15-.1824-.2963.0213-.061.1475-.126.2175-.118.155.016.237.143.184.289-.021.062-.142.087-.219.127"/>
  <path fill="#228fcb" d="M85.5144 35.986c-.325-.385-.205-.7326.0175-1.1376.25.4112.335.76-.018 1.1375"/>
  <path fill="#badbee" d="M85.6136 33.867c-.0412.1636-.15.2524-.3062.1936-.065-.025-.1338-.1562-.1263-.2312.017-.1638.147-.2513.302-.1963.064.023.089.153.131.234"/>
  <path fill="#afd6ec" d="M91.688 74.8796c.36.1213.469.2975.449.605-.4226.025-.53-.1612-.449-.605"/>
  <path fill="#eaf4fa" d="M94.2586 74.995c-.0337.0788-.045.1963-.105.23-.135.0775-.2687.0138-.31-.1312-.0175-.0638.0375-.195.0963-.2275.135-.0763.251-.0113.318.1287"/>
  <path fill="#86c1e2" d="M74.202 75.049c-.1.0062-.201.0112-.301.015v-1.3213c.4274.605.341.96.301 1.3063"/>
  <path fill="#e9f3f9" d="M90.865 76.9303c-.0424.155-.151.235-.2974.1837-.06-.0225-.1262-.1487-.1187-.2188.017-.155.143-.2362.29-.1837.061.0212.085.1425.126.2188"/>
  <path fill="#e3f0f8" d="M91.5483 72.981c.075.0426.1962.0714.2175.134.05.1486-.0363.271-.1925.2836-.0713.005-.1963-.0637-.2163-.125-.0475-.1475.0325-.2562.1913-.2925"/>
  <path fill="#d7eaf5" d="M74.7553 72.3312c-.0726.14-.1926.2013-.3263.1213-.0587-.035-.1125-.1688-.0912-.2338.0462-.1437.1824-.205.3174-.1237.06.0362.0688.155.1.2362"/>
  <path fill="#5aabd8" d="M91.1854 80.0956c-.3488-.1175-.475-.315-.2575-.6612.445.09.422.3462.257.6612"/>
  <path fill="#8dc5e4" d="M85.271 81.601c-.0664.06-.129.1674-.2014.1736-.1825.0163-.2875-.0987-.2175-.2775.027-.066.169-.128.248-.116.063.009.109.134.172.22"/>
  <path fill="#d9ebf5" d="M77.8384 53.9425c-.0288.0675-.0425.185-.1025.22-.137.0787-.27.015-.312-.13-.019-.0663.037-.1988.097-.2313.132-.0712.257-.025.316.1413"/>
  <path fill="#d6eaf5" d="M88.9025 81.755c.3575.0137.49.1775.38.54-.355-.0163-.4913-.1763-.38-.54"/>
  <path fill="#e9f3f9" d="M77.8774 52.544c.0787.0338.1962.0463.23.1063.0775.1337.0137.2675-.13.3087-.065.0188-.195-.0362-.2288-.0962-.075-.1338-.0112-.25.1288-.3188"/>
  <path fill="#1588c8" d="M91.2 82.557c.0987-.2186.05-.51.3175-.646.1187.3986.22.7986.0312 1.205l-.1087-.02-.11.0024c-.0438-.1813-.0863-.3613-.13-.5413"/>
  <path fill="#7dbde0" d="M73.1483 65.044c-.24-.2926-.2176-.485.0112-.659.2075.194.2438.3914-.0112.659"/>
  <path fill="#51a6d6" d="M89.7524 60.7978c.0875 0 .175.0025.2625.0062.097.3175.088.6338-.007.9488l.025-.02c-.48-.195-.329-.5813-.281-.935"/>
  <path fill="#70b7dd" d="M88.7674 76.5826c-.3288.005-.7238.2225-.8963-.2775.329-.003.698-.137.897.278"/>
  <path fill="#3799d0" d="M80.73 83.457c0 .0914-.001.184 0 .275-.335-.01-.67-.0186-1.0036-.0286.2987-.2263.6412-.2775 1.0037-.2463"/>
  <path fill="#cee6f3" d="M92.4854 88.203c-.3338-.005-.4225-.1164-.4238-.3264.3863-.135.3425.0963.4238.3263"/>
  <path fill="#b5d9ed" d="M93.9014 72.2278c.105.525-.0013.6175-.2438.5887-.2112-.2675.0925-.2737.2438-.5887"/>
  <path fill="#bbdcee" d="M78.088 50.429c.1976.231.1726.396.049.58-.284-.135-.23-.3164-.049-.58"/>
  <path fill="#1286c7" d="M166.4378 80.8505c-3.24-4.2012-6.2388-9.8712-7.0338-13.3737 1.2188.4512 1.5625 1.4562 1.8925 2.3087 1.045 2.69 2.3588 5.205 3.9475 7.6238.5975.91 1.7475 1.86 1.1938 3.4412"/>
  <path fill="#2892cc" d="M140.151 32.3323c.561 3.7762.5724 7.4025.0286 9.0237-.4325-.8962-.5612-1.6287-.5187-3.44.028-1.2287.116-2.4575.176-3.6862-.15-.45-.061-.915-.086-1.3725 0-.1538.008-.3075.03-.46.102-.14.225-.1675.37-.065"/>
  <path fill="#3297cf" d="M148.9805 59.2888c-.72.955-1.2325 2.0837-2.3075 2.7387-.2625.1113-.3337.0238-.2413-.2337.2613-1.2188 1.1038-1.9538 2.1175-2.5463.1575-.1312.3013-.1175.4313.0413"/>
  <path fill="#d5e9f5" d="M138.828 53.152c.204.685.2364 1.3136-.0236 1.9936-.6125-.895-.61-1.1575.0237-1.9937"/>
  <path fill="#4ca4d5" d="M151.3074 56.48c-.3888.4925-.5 1.22-1.22 1.4312-.1188-.0212-.2025-.0887-.2563-.1975.245-.615.672-1.0787 1.21-1.45.133.0175.224.0863.267.2163"/>
  <path fill="#66b2db" d="M165.027 73.4563c.28.5562.56 1.1137.84 1.67-.1037.0687-.2075.1362-.31.205-.3225-.4713-.6525-.9375-.8112-1.5325.0812-.1238.095-.3038.2812-.3425"/>
  <path fill="#b7daed" d="M139.6194 30.164c.02-.3936-.165-.821.25-1.231.6012.5486.2562 1.241.3125 1.8474-.099.0862-.207.105-.327.0462-.149-.195-.044-.4812-.236-.6625"/>
  <path fill="#e5f1f8" d="M154.1554 50.749c.2187-.715.7137-1.011 1.205-1.4474-.195.7725-.195.7725-1.205 1.4475"/>
  <path fill="#cbe5f2" d="M138.5118 44.0383c.5987.4687.46.8075.2637 1.225-.6525-.2838-.375-.6838-.2637-1.225"/>
  <path fill="#d0e7f3" d="M155.392 52.761c.27-.4425.5114-.9113 1.254-1.3363-.2314.92-.5926 1.2738-1.264 1.3263l.01.01z"/>
  <path fill="#c1dff0" d="M151.3074 56.48c-.0888-.0725-.1775-.1438-.2663-.2163.135-.515.525-.7825.995-.9975-.075.5088-.282.93-.728 1.2138"/>
  <path fill="#d2e8f4" d="M158.5393 64.8236c.2862.4213.5487.6613.4487 1.1013-.4875-.32-.4875-.32-.4487-1.102"/>
  <path fill="#d3e8f4" d="M157.0118 55.675c.5812.2.5425.615.82 1.1314-.7338-.2263-.9475-.5088-.82-1.1313"/>
  <path fill="#eff7fb" d="M159.6885 58.3353c-.335-.3013-.4775-.6688-.4888-1.1388.6263.025.6175.5225.8438.7963-.0325.2025-.1488.32-.355.3425"/>
  <path fill="#a6d2ea" d="M138.4857 50.4008c.5138.3275.5775.6362.2088 1.0737-.4575-.2425-.3575-.6012-.2088-1.0737"/>
  <path fill="#bbdcee" d="M155.382 52.751c.0326.5714-.32.8614-.9074 1.259.1013-.7576.4813-1.024.9175-1.249l-.01-.01z"/>
  <path fill="#4ca4d4" d="M149.8316 57.7144c.085.0662.1713.1312.2563.1975-.09.327-.269.593-.542.797-.216-.058-.348-.199-.406-.412.207-.221.375-.49.691-.584"/>
  <path fill="#3799d0" d="M149.14 58.2986c.2026.07.3364.2088.4064.41-.13.2513-.3163.4463-.5663.58l-.431-.0412c.176-.33.208-.7488.591-.9488"/>
  <path fill="#6bb4dc" d="M139.9002 30.7606c.095-.0062.1888 0 .2813.02l-.03 1.5513c-.0688.002-.135.013-.2013.032-.3724-.243-.065-.7-.3112-.983l.0037-.319c.0463-.134.1326-.235.2576-.303"/>
  <path fill="#45a0d3" d="M157.8092 49.858c.0263.164.0525.3276.0775.4914-.18.3562-.4037.665-.8975.7912-.055-.6687.4875-.9137.82-1.2825"/>
  <path fill="#d5e9f5" d="M153.783 54.8963c-.13-.4188.085-.5725.2838-.8575.4437.6312.075.7025-.2838.8575"/>
  <path fill="#55a8d7" d="M165.027 73.4563c-.0937.1137-.1875.2287-.2812.3425-.1538-.3938-.3088-.7875-.4625-1.1813.1125-.1563.2387-.17.38-.04.165.275.3575.5387.3637.8787"/>
  <path fill="#afd6ec" d="M145.9965 62.644c-.1237.4937-.3275.71-.7212.7712-.0738-.4637.1875-.6325.7212-.7712"/>
  <path fill="#bbdcee" d="M160.3428 58.636c.085.2638.3412.5075.1487.8338-.6212-.0438-.3875-.5213-.4987-.8.1062-.1225.2225-.1338.35-.0338"/>
  <path fill="#6bb4dc" d="M139.9075 32.617c-.0238.5374-.0462 1.075-.07 1.6124-.3287-.5038-.2475-1.0563-.19-1.6063.0825-.146.17-.148.26-.006"/>
  <path fill="#d8ebf5" d="M162.1176 67.9464c-.0425.1562-.1525.2362-.3.1837-.0612-.021-.1275-.148-.12-.22.0175-.157.1438-.238.2925-.185.062.023.087.145.128.222"/>
  <path fill="#e7f3f9" d="M138.638 42.0018c.075.0425.1963.0712.2162.1325.05.15-.0362.2712-.1912.2837-.0725.005-.1975-.0637-.2162-.125-.0475-.1462.0337-.255.1912-.2912"/>
  <path fill="#7ebde0" d="M139.9075 32.617c-.0875-.0014-.1738.001-.26.006-.0038-.4136-.0063-.8274-.0088-1.241.375.241.225.65.3113.9824-.0125.085-.0275.1687-.0425.2525"/>
  <path fill="#a7d2ea" d="M160.3428 58.636l-.35.0338c-.1013-.1113-.2025-.2225-.3038-.335.1175-.1138.2363-.2275.355-.3425.2438.1475.3075.3787.2988.6437"/>
  <path fill="#e2f0f8" d="M163.235 70.656c.229.1536.4214.3124.265.5774-.465-.0263-.3024-.3425-.265-.5775"/>
  <path fill="#85c1e2" d="M153.349 53.854c-.2238-.4.0612-.5414.3375-.7176.2275.4112.0287.5937-.3375.7175"/>
  <path fill="#e7f3f9" d="M138.601 59.6694c.0786.0337.196.0462.23.1062.0774.135.0136.2675-.13.3088-.065.0187-.195-.0375-.229-.0963-.075-.133-.011-.25.129-.318"/>
  <path fill="#d5e9f5" d="M154.241 52.3032c.1312-.1412.2175-.2362.3125-.3387.2687.44.0612.4225-.3125.3387"/>
  <path fill="#7ebde0" d="M139.9002 30.7606c-.085.1013-.1712.2025-.2575.3025-.0074-.298-.015-.598-.0237-.898.2913.106.27.359.2813.596"/>
  <path fill="#4aa3d4" d="M164.664 72.5774c-.1264.0137-.254.0262-.38.04-.195-.1038-.2614-.255-.1626-.4913.3387-.047.4962.13.5425.452"/>
  <path fill="#c2e0f0" d="M140.083 42.963c-.2263-.1375-.1988-.3138-.0975-.5125.3537.115.2338.3075.0975.5125"/>
  <path fill="#dfeef7" d="M159.909 44.6987c-.069.33-.134.48-.37.42-.115-.2462.03-.3225.37-.42"/>
  <path fill="#cbe4f2" d="M144.365 45.794c.2125.0112.3263.1025.2937.3325-.3262.0875-.43-.0113-.2937-.3325"/>
  <path fill="#2d94cd" d="M146.4315 61.7936c.0813.0775.1613.1563.2425.2338-.0638.21-.2125.29-.4387.275-.2075-.2688-.0313-.3975.1962-.5088"/>
  <path fill="#439fd2" d="M152.8288 54.536c-.06.2562-.1725.3787-.43.2687.0287-.28.155-.38.43-.2687"/>
  <path fill="#1387c7" d="M41.6436 88.0493c2.55-.5763 5.1525-.705 7.7463-.8876.87-.0612 1.733.0126 2.587-.2887.557-.1975 1.117-.055 1.51.4762-.107.775-.704.875-1.264.7963-2.324-.3287-4.575.5163-6.881.3813-1.215-.0713-2.438.0824-3.645-.1488-.104-.0588-.147-.1263-.128-.2038.02-.0837.043-.125.073-.125"/>
  <path fill="#3196ce" d="M61.5456 50.5824c.1013-2.1913-.2-4.3963.2425-6.575.288.14.122.4975.324.6775.248 1.872.193 3.741-.051 5.608-.095.234-.233.389-.515.289"/>
  <path fill="#9fcee8" d="M59.2927 67.5848c.0325.4362.1838.9175-.44 1.16v-4.7c.7588.8275.39 1.7775.465 2.6712-.1837.285-.1612.575-.025.8688"/>
  <path fill="#208eca" d="M61.5456 50.5824c.1713-.0963.3438-.1925.515-.2888.1488.9975.17 1.9875-.1862 2.9525.1162.364.1887.727-.0338 1.08-.0137.298-.0287.597-.0437.894-.289.04-.47-.015-.31-.361-.258-1.428.052-2.85.058-4.276"/>
  <path fill="#dfeef7" d="M61.211 65.7612c.08-1.1875-.1713-2.4.2925-3.5712.54 1.0737.2625 2.215.2912 3.3287-.1562.1713-.265.46-.5837.2426"/>
  <path fill="#7dbde0" d="M60.9774 74.4272c-.0638-1.1487-.215-2.2187.1537-3.42.564 1.425.508 2.5675-.153 3.42"/>
  <path fill="#3096ce" d="M37.059 67.684c.4838.85.355 1.7664.595 2.82-1.0725-.6136-1.1262-.926-.595-2.82"/>
  <path fill="#a5d1e9" d="M36.4592 92.7148c.0163-.9863-.185-1.9888.2075-3.2325.6138 1.1037.3126 2.0437.34 2.94-.1362.185-.2262.455-.5474.2924"/>
  <path fill="#3497cf" d="M61.487 54.859c.104.12.2064.2413.31.3613-.156.5975.7414 1.3225-.331 1.9387-.154-.835-.335-1.5562.021-2.3"/>
  <path fill="#5eadd9" d="M61.211 65.7612c.195-.0812.39-.1625.5837-.2425.1976.935-.2762 1.805-.27 2.7225-.0937.1425-.1912.1375-.2925.0075-.0074-.8287-.0137-1.6587-.0212-2.4875"/>
  <path fill="#a0cee8" d="M60.4194 94.036c.445.9576-.1275 1.68-.3363 2.4564.014-.8038-.396-1.67.337-2.4563"/>
  <path fill="#98cae6" d="M36.4592 92.7148l.5475-.2925c.0425.645.1438 1.2924-.0787 2.0124-.795-.4462-.4088-1.1474-.4688-1.72"/>
  <path fill="#2b93cd" d="M61.109 77.2696c.78.4288.79.7875.1336 1.2475-.5512-.332-.4162-.718-.1337-1.247"/>
  <path fill="#d6eaf5" d="M41.6436 88.0493c.0175.11.035.2187.0538.3287H40.621c.1976-.855.6326-.5012 1.0226-.3287"/>
  <path fill="#c4e0f1" d="M38.684 67.4667c.2987.2475.54.4713.2375.8813-.59-.1588-.26-.5438-.2375-.8813"/>
  <path fill="#218ecb" d="M61.0206 76.8656c-.2225-.6775-.3037-1.0637.0538-1.405.3937.4313.2225.835-.0538 1.405"/>
  <path fill="#2c94cd" d="M61.2317 68.249c.0976-.0026.195-.0064.2926-.009-.0038.4126-.0088.824-.0126 1.235-.095.1526-.1837.14-.2637-.0136-.11-.4025-.1213-.8063-.0163-1.2125"/>
  <path fill="#ecf5fa" d="M59.2652 61.489c-.0712.1386-.19.1974-.3212.1174-.0588-.035-.1125-.1663-.0925-.2288.0462-.1437.1825-.2012.3137-.1212.0588.0362.0688.1525.1.2325"/>
  <path fill="#4ea5d5" d="M61.8182 43.761c-.0137-.3337-.1162-.6787.1488-1.0675.2538.3625.1788.7263.175 1.0738-.11.1375-.2188.1425-.3238-.0063"/>
  <path fill="#75b9de" d="M61.248 69.462c.0886 0 .176.005.2636.0125.0288.3825.1663.7787-.1425 1.1287-.282-.3612-.152-.7562-.121-1.1412"/>
  <path fill="#ddedf6" d="M59.267 70.1665c-.0725.14-.1913.1988-.3237.1188-.06-.035-.1138-.1675-.0925-.2313.045-.1437.1825-.2037.315-.1225.06.0363.07.155.1012.235"/>
  <path fill="#2691cc" d="M61.841 54.3256l.034-1.08c.3324.3713.286.73-.034 1.08"/>
  <path fill="#70b6dd" d="M45.3985 83.1466c-.0037.0663-.0062.1325-.01.1988-.235.0537-.4825.1387-.5787-.2113.2087-.342.3962-.066.5887.013"/>
  <path fill="#0d84c6" d="M61.8182 43.761c.1076.0025.2163.0038.3238.0063.0887.3087.06.615-.03.9175-.2875-.1388-.2513-.435-.3238-.6763-.025-.0875-.015-.17.03-.2475"/>
  <path fill="#83c0e1" d="M59.2927 67.5848c-.3662-.3-.36-.59.025-.8688-.0087.29-.0162.5788-.025.8688"/>
  <path fill="#1689c8" d="M118.5042 83.9974c.585-1.2763 1.605-1.965 2.7213-2.6188.22 1.78-.3363 2.3188-2.7212 2.6188"/>
  <path fill="#53a7d6" d="M104.877 33.8567c-.0775 1.3025.2363 2.6463-.4062 4.025-.5588-.8262-.5613-1.5837-.3075-2.3925.1674-.5312.4587-1.0312.4474-1.6125.08-.1237.1688-.1237.2663-.02"/>
  <path fill="#a2cfe9" d="M103.5988 48.135c-.505-1.274-.1575-2.6126-.3575-3.915.6262 1.236.83 2.53.6912 3.88-.0962.1586-.2075.1624-.3337.035"/>
  <path fill="#e6f2f8" d="M104.2764 39.4354c.0725-.1438.1875-.225.4875-.23v5.0175c-.743-.87-.377-1.644-.487-2.323.316-.455.085-.969.156-1.452-.047-.339.121-.711-.158-1.014"/>
  <path fill="#2490cb" d="M102.441 61.3972c-.1438-.5775-.3875-1.1337-.3662-1.7462-.2025-.3063-.0075-.715-.26-1.01-.0926-.93-.2188-1.86-.0163-2.7913.0813-.0912.16-.0887.235.0075.0375.1638.075.3288.1125.4925.2138.4263-.015.9288.23 1.35.1462.3713.1275.7538.0775 1.1388.225.4212-.0225.9262.2375 1.3425.04.1962.0788.3925.1175.5887.02.2925.2363.7-.3675.6275"/>
  <path fill="#dcedf6" d="M114.4423 90.3975c-.9813.425-2.11-.075-3.0876-1.3175 1.2276.3363 1.89 1.4325 3.0876 1.3175"/>
  <path fill="#94c8e5" d="M104.6246 54.2635c.2925.2775.2763.6387.2575.995-.052 1.0512.022 2.0937.172 3.1512-.812-.9325-.312-2.1875-.755-3.2025.284-.2537-.036-.7175.326-.9437"/>
  <path fill="#95c9e5" d="M102.441 61.3972c.3275-.0887.2775-.3987.3675-.6275.3338.92.3588 1.8963.5113 2.8488-.115.1162-.135.335-.3588.335-.2825-.83-.4975-1.6738-.52-2.5563"/>
  <path fill="#82bfe1" d="M104.2458 54.3366c-.5963-.9087-.0538-1.94-.3713-2.8937.5.586.7313 1.228.6638 1.963-.2426.264.0424.695-.2926.93"/>
  <path fill="#c4e1f0" d="M105.8253 77.5182c.5125.4926.335 1.145.6187 1.965-.845-.4962-.945-1.0374-.93-1.6374.1113-.1026.14-.2826.3113-.3276"/>
  <path fill="#eef6fb" d="M105.5544 64.377c-.4625-.4664-.3588-.984-.26-1.6.755.4824.52 1.046.26 1.6"/>
  <path fill="#c2dff0" d="M101.146 40.0392c-.0025.5463.1337 1.0988-.075 1.6675-.4888-.365-.5363-.8512-.4813-1.3725.1438-.175.24-.4437.5563-.295"/>
  <path fill="#9ecde8" d="M101.146 40.0392c-.185.0988-.3713.1963-.5563.295.065-.815-.3962-1.6937.2988-2.4312.31.5575-.035 1.1975.225 1.7612.01.125.0212.25.0325.375"/>
  <path fill="#e5f1f8" d="M105.8253 77.5182c-.1038.1088-.2075.2188-.3113.3276.1175-.5588-.325-1.0426-.2912-1.7138.8024.31.5424.9137.6024 1.3862"/>
  <path fill="#3699d0" d="M102.0337 55.8574h-.1174l-.1176-.0075c-.355-.335-.3275-.703-.0787-1.158.6037.28.3112.767.3137 1.165"/>
  <path fill="#a9d3ea" d="M103.9527 68.5608c-.0662.4437.6563.9062-.1337 1.4287-.28-.4838-.1325-.9813-.1688-1.4413.1075-.1424.2075-.1312.3025.0126"/>
  <path fill="#add5eb" d="M103.3987 63.8733c.3625.495.3038.9875.0888 1.4912-.4688-.0425-.42-.32-.4288-.5637.29-.245-.0462-.7188.34-.9275"/>
  <path fill="#aad3ea" d="M108.896 26.7306c-.165.3963-.271.8463-.7986 1.1813-.025-.597.1825-.987.5637-1.305.082-.068.169-.02.235.123"/>
  <path fill="#a8d3ea" d="M104.877 33.8567c-.0887.0075-.1775.015-.2662.02-.025-.4-.1338-.8275.345-1.0875.4587.3963.3337.7413-.0788 1.0675"/>
  <path fill="#47a1d3" d="M104.2458 54.3366c.0962-.31-.1125-.7162.2925-.93l.0862.8575c-.14.303.1213.745-.3262.943l-.0525-.87"/>
  <path fill="#b0d7ec" d="M104.0236 79.3196c.2788-.0937.215-.3562.275-.5575.4488.357.265.827.2363 1.403-.32-.265-.489-.502-.512-.845"/>
  <path fill="#1086c7" d="M101.113 39.664c-.55-.5264-.156-1.1726-.225-1.76l-.0024.001c.1163-.1636.1863-.146.21.0526.245.5663.1213 1.1363.0175 1.7063"/>
  <path fill="#9ecde8" d="M101.096 37.958c-.0774.0136-.1474-.005-.21-.054.039-.3824-.355-.71-.2036-1.1774.8262.2538.3362.8288.4137 1.2313"/>
  <path fill="#6db5dc" d="M113.972 24.2292c.5825.125.8388.3963 1.0125.9375-.6025-.09-.8638-.3562-1.0125-.9375"/>
  <path fill="#cfe6f3" d="M103.9527 68.5608c-.1012-.0075-.2012-.0113-.3024-.0125.11-.38-.435-.7175-.0538-1.1713.5988.2713.2725.795.3562 1.1838"/>
  <path fill="#68b2db" d="M103.9325 49.368c.05.446.1988.896-.0975 1.4224-.3387-.4975-.18-.98-.1712-1.4388.0987-.1462.1887-.1487.2687.0163"/>
  <path fill="#6ab3dc" d="M104.5855 40.3604c-.035.5275.2575 1.1187-.3075 1.54-.0013-.5138-.0025-1.0263-.005-1.54.105-.1438.2088-.1375.3125 0"/>
  <path fill="#a3d0e9" d="M107.843 83.9916c-.4763-.1075-.5425-.3275-.365-.6662.3738.0187.51.1937.365.6662"/>
  <path fill="#b8dbee" d="M119.8786 34.7294c-.5362-.1513-.3637-.4438-.3687-.7538.401.1475.64.29.368.7538"/>
  <path fill="#ebf4fa" d="M109.0313 86.3374c.3587.125.435.3187.4662.6062-.4275.015-.5237-.18-.4662-.6062"/>
  <path fill="#d2e8f4" d="M116.2687 90.8324c-.0437.0762-.0724.1987-.135.22-.1525.05-.2775-.0363-.29-.195-.0062-.0725.065-.1988.1263-.2188.15-.0487.2612.0325.2987.1938"/>
  <path fill="#acd5eb" d="M103.9325 49.368c-.0887-.01-.1787-.015-.2687-.0164-.0213-.4062-.0438-.8112-.065-1.2162.1112-.0125.2225-.0238.3337-.035v1.2675"/>
  <path fill="#439fd2" d="M103.3987 63.8733c-.1225.3062.0588.7225-.34.9275-.0325-.2825-.065-.565-.0987-.8475.12-.1113.24-.2238.3587-.335.0363.0825.0625.1675.08.255"/>
  <path fill="#2a93cd" d="M102.3756 57.7004c-.4637-.385-.2137-.89-.2287-1.3513.312.41.228.888.228 1.352m.316 2.48c-.469-.379-.22-.884-.238-1.342.29.41.298.87.237 1.343"/>
  <path fill="#cae4f2" d="M105.3973 82.3046c-.3613-.0175-.4988-.1825-.3838-.5525.3588.019.4988.183.3838.553"/>
  <path fill="#2a93cd" d="M101.815 58.6416c.415.2525.266.6488.2586 1.01-.25-.295-.275-.6475-.2587-1.01"/>
  <path fill="#3096ce" d="M104.5855 40.3604h-.3112c0-.3088.0012-.6163.0025-.925.4775.1825.3237.5775.3087.925"/>
  <path fill="#98cae6" d="M125.1672 147.0675c.465.255.435.4512.0763.6525-.3175-.1388-.2213-.3525-.0762-.6525"/>
  <path fill="#0b83c5" d="M106.0975 147.255c.4362 1.099.6775 2.21.7625 3.4176.105 1.5138.5225 3.0188.8388 4.5188.34 1.6187.18 3.3487.5837 4.9975.1063.433.13.887.2213 1.546-1.755.029-3.3763.7-5.2338.521.2987-1.887.4238-3.705.79-5.524.36-1.794.715-3.625.8075-5.459.0525-1.012.2363-1.918.685-2.798.3688-.323-.2587-1.092.545-1.222"/>
  <path fill="#2b93cd" d="M106.0975 147.255c-.505.2626-.0213.9676-.545 1.2214.0887-.7625-.2162-1.5488.0713-2.3938.6412.29.5312.7413.4737 1.1725"/>
  <path fill="#0b83c5" d="M118.6337 106.0337c.4938-.5512.975-.7574 1.49-.8037 2.0388-.1813 4.005-.8313 6.07-.8738.6838-.015 1.3413.0076 1.97.2113 1.4863.4838 2.205 2.06.8463 3.5063-1.6187 1.7224-3.47 2.6212-5.8288 2.6262-1.47.0025-2.8387.8575-4.5387.595.2162-1.7412.3087-3.5137-.0088-5.2612"/>
  <path fill="#0a83c5" d="M96.995 113.8963c.1313-2.9325 2.6563-6.1325 5.3312-6.9088 1.9188-.5575 3.4776-.19 4.8726 1.32 2.6987 2.9163 1.65 8.2825-1.9988 9.7637-2.4613 1-4.765.4976-6.8625-.965-1.0875-.7587-1.4775-1.94-1.3425-3.21"/>
</svg>
