<svg xmlns="http://www.w3.org/2000/svg" width="625" height="125" viewBox="0 0 625 125">
  <path fill="#d31e25" d="M462.171 49.06h14.289V11.8385L462.171 32.63v16.43zM104.138 75.8458v8.3675H86.493v7.3062h13.7v8.0475h-13.7v13.5038h29.4313v-37.225H104.138zm287.285-45.1904c0-6.3938-4.64-10.4475-9.97-10.4475h-7.3575v20.577h7.3575c5.33 0 9.97-3.733 9.97-10.13M257.764 49.06l14.8887-37.2214h-21.705V49.06h6.8163zm199.932-24.5338h.0524c.0512 0 .85-1.12 1.9187-2.7175l6.772-9.97h-17.433l6.768 9.97c1.068 1.5975 1.866 2.7175 1.923 2.7175M453.268 49.06V32.63l-14.285-20.7914h-11.682L442.1897 49.06h11.0788zM188.6 20.394c-5.765 0-9.59 4.079-9.59 10.1014 0 5.9637 3.825 10.0962 9.59 10.0962 5.815 0 9.64-4.1325 9.64-10.0962 0-6.0225-3.825-10.1013-9.64-10.1013m80.9064 22.897L267.41 49.06h18.96l-2.097-5.7687h-14.766zm9.2236-15.088c-.7986-2.131-1.7574-5.486-1.8136-5.486h-.0525c-.053 0-1.012 3.355-1.815 5.486l-2.665 7.253h9.011l-2.665-7.252zM75.349 49.06l14.8926-37.2214h-21.705V49.06h6.8125zm11.7457-5.776l-2.1 5.7764h18.9663l-2.1-5.7763H87.0947zm9.224-15.0848c-.7988-2.1312-1.7576-5.485-1.815-5.485h-.0513c-.0525 0-1.0113 3.3538-1.815 5.485l-2.665 7.2513h9.0112l-2.665-7.2513zM50.992 75.8458c10.295.005 18.645 7.845 18.645 18.66 0 10.1412-7.35 17.6687-16.76 18.565h24.6614v-37.225H50.992zm139.1555 0v37.225h21.6062l-14.3075-37.225h-7.2987zm393.1555 0c6.8014.1412 12.734 3.7912 15.8976 9.5225l-8.7675 2.3087c-1.691-2.05-4.717-3.3325-7.536-3.3325-5.949 0-9.64 4.255-9.64 10.1538 0 6.305 4.255 10.2537 10.154 10.2537 5.742 0 8.254-2.9762 9.282-5.64v-.05h-9.436v-6.9225h16.768V75.8458h-16.72zm-366.7186 27.4017h.0525c.056 0 .693-2.665 2.135-6.8237l7.192-20.5776h-18.707l7.196 20.5776c1.436 4.1587 2.079 6.8237 2.131 6.8237m64.457-27.4017c6.824.2075 12.63 3.94 15.72 9.5225l-8.774 2.31c-1.643-2.0513-4.722-3.3338-7.542-3.3338-5.953 0-9.646 4.2575-9.646 10.1613 0 6.2075 4.053 10.0562 9.646 10.0562 3.439 0 6.723-1.7462 8.21-4.2075l8.723 2.2563c-2.713 5.7975-8.283 9.795-14.956 10.46h24.024v-37.225h-25.405zM389.332 86.723h-.0525c-.0513 0-1.0113 3.355-1.8138 5.486l-2.665 7.2526h9.0112l-2.6667-7.2525c-.7976-2.131-1.7576-5.486-1.814-5.486m174.952 7.776c0-10.721 8.154-18.51 18.33-18.652h-28.168v37.225h26.555c-9.4112-.896-16.7162-8.427-16.7162-18.572m-73.169-18.654l-15.833 15.885 15.871 21.34h8.869V75.846h-8.907zm-24.897 24.949v12.277h14.38l-11.232-15.424-3.1475 3.1475zm-296.1335-70.3c0-10.765 8.2614-18.569 18.515-18.569.0814 0 .16.01.2414.012v-.099H162.96V49.06h25.64c-10.2536 0-18.515-7.804-18.515-18.565m193.3215 45.3508v37.225h6.7725l14.8912-37.225h-21.6637zm18.517 31.4514l-2.0987 5.7738h18.9637l-2.0987-5.7737h-14.7663zm84.191-17.3797h.0524c.051 0 1.12-1.2762 4.905-5.0613l9.062-9.01h-13.916v6.0763c0 6.185-.16 7.995-.104 7.995"/>
  <path fill="#3b81cb" d="M24.977 113.161h25.9737c-10.305 0-18.6062-7.841-18.6062-18.656 0-10.8176 8.3012-18.66 18.6062-18.66H24.977m.0005-26.69h10.08V11.8387h-10.08V49.155zm399.927-20.952c-.7987-2.1312-1.7575-5.4862-1.8137-5.4862h-.0525c-.0525 0-1.0113 3.355-1.815 5.4862l-2.665 7.2525h9.0112l-2.665-7.2525zm-9.2238 15.088l-2.0962 5.7686h18.96l-2.0975-5.7687h-14.7663zM400.751 30.6554c0 10.4675-7.5525 17.53-17.2475 18.405h20.435l14.8887-37.2213h-37.375c10.6613 0 19.2988 7.622 19.2988 18.817M59.5772 33.75h.0563c.0525 0-.0562-6.6114-.0562-13.3826v-8.5288h-16.099L51.421 22.5c2.4 3.1986 8.1037 11.25 8.1563 11.25M44.012 26.9786h-.0526c-.0513 0 .0525 5.755.0525 13.9113v8.17h16.03l-7.553-10.302c-3.413-4.693-8.425-11.78-8.478-11.78M188.84 11.839v.098c10.1388.1214 18.325 7.8776 18.325 18.5576 0 10.762-8.315 18.565-18.565 18.565h28.8675V11.839H188.84zm-54.5654 8.368V49.06h19.73V11.8385h-8.375v8.3688h-11.355zM241.989 33.75h.056c.0526 0-.056-6.6114-.056-13.3826v-8.5288H225.89L233.8327 22.5c2.4013 3.1986 8.1038 11.25 8.1563 11.25m303.4983 64.0067h.0562c.0525 0-.0562-6.6112-.0562-13.3824v-8.5288h-16.0988l7.9425 10.66c2.4 3.1987 8.1037 11.2512 8.1563 11.2512M329.431 40.786v8.2737h10.71V11.8385h-28.355V40.786h17.645zm-26.5993 8.274V11.8385h-21.705l14.889 37.2215h6.8162zm-76.4082-22.0814h-.0525c-.0513 0 .0525 5.755.0525 13.9113v8.17h16.03l-7.5525-10.302c-3.4125-4.693-8.425-11.78-8.4775-11.78M125.3205 49.06V20.2073h-11.195v-8.3688h-15.411L113.607 49.06h11.7136zM50.981 84.3554c-5.7926 0-9.6364 4.0987-9.6364 10.15 0 5.9937 3.8438 10.1462 9.6363 10.1462 5.842 0 9.687-4.1525 9.687-10.1462 0-6.0513-3.845-10.15-9.688-10.15m478.941 6.6296h-.053c-.051 0 .0525 5.755.0525 13.9112v8.175h16.0324l-7.555-10.3062c-3.412-4.6913-8.425-11.78-8.477-11.78m-20.9458 22.0863h11.9913v-37.225h-11.991v37.225zM235.774 75.8458l-14.3026 37.225h21.615v-37.225h-7.3125zm-80.4565 0c6.8213.2062 12.6263 3.9375 15.7137 9.5175l-8.7687 2.3087c-1.6412-2.05-4.7188-3.3325-7.5375-3.3325-5.95 0-9.6412 4.2563-9.6412 10.1563 0 6.205 4.05 10.05 9.6412 10.05 3.4363 0 6.7188-1.745 8.205-4.2038l8.72 2.255c-2.7387 5.8475-8.3825 9.8638-15.1325 10.4738h24.675v-37.225h-25.875zm185.1062 37.2255h14.005v-14.45h-14.005v14.45zm71.652-18.5633c0-10.694 8.1063-18.4676 18.2413-18.6626h-36.7738l14.8913 37.2262h20.2012c-9.3362-.9725-16.56-8.4712-16.56-18.5637m-150.2547-.003c0-10.682 8.0875-18.449 18.2062-18.66H252.041v37.226h26.3663c-9.3488-.96-16.5863-8.465-16.5863-18.5667m92.6078-18.6594h-14.005V90.23h14.005V75.846zm76.8204-.0004c6.845.191 12.6713 3.9286 15.7688 9.525l-8.7737 2.31c-1.6426-2.0514-4.7213-3.334-7.5426-3.334-5.9537 0-9.6475 4.2574-9.6475 10.161 0 6.209 4.0538 10.0564 9.6475 10.0564 3.4388 0 6.7225-1.746 8.21-4.2072l8.725 2.2575c-2.71 5.7863-8.265 9.78-14.9212 10.4563h24.5487V75.845h-26.015z"/>
</svg>
